<mxfile host="Electron" agent="Mozilla/5.0 (Windows NT 10.0; Win64; x64) AppleWebKit/537.36 (KHTML, like Gecko) draw.io/26.0.4 Chrome/128.0.6613.186 Electron/32.2.5 Safari/537.36" version="26.0.4">
  <diagram name="Page-1" id="zIAc1RasXzQCVHX7SyV6">
    <mxGraphModel dx="3800" dy="2105" grid="1" gridSize="10" guides="1" tooltips="1" connect="1" arrows="1" fold="1" page="1" pageScale="1" pageWidth="1654" pageHeight="1169" math="0" shadow="0">
      <root>
        <mxCell id="0" />
        <mxCell id="1" parent="0" />
        <mxCell id="RvB_AW_f78uJxgz17riM-78" value="key_in[53]" style="text;html=1;align=center;verticalAlign=middle;whiteSpace=wrap;rounded=0;" vertex="1" parent="1">
          <mxGeometry x="10" y="-20" width="60" height="20" as="geometry" />
        </mxCell>
        <mxCell id="RvB_AW_f78uJxgz17riM-79" value="key_in[52]" style="text;html=1;align=center;verticalAlign=middle;whiteSpace=wrap;rounded=0;" vertex="1" parent="1">
          <mxGeometry x="70" y="-20" width="60" height="20" as="geometry" />
        </mxCell>
        <mxCell id="RvB_AW_f78uJxgz17riM-80" value="key_in[49]" style="text;html=1;align=center;verticalAlign=middle;whiteSpace=wrap;rounded=0;" vertex="1" parent="1">
          <mxGeometry x="250" y="-20" width="60" height="20" as="geometry" />
        </mxCell>
        <mxCell id="RvB_AW_f78uJxgz17riM-81" value="key_in[50]" style="text;html=1;align=center;verticalAlign=middle;whiteSpace=wrap;rounded=0;" vertex="1" parent="1">
          <mxGeometry x="190" y="-20" width="60" height="20" as="geometry" />
        </mxCell>
        <mxCell id="RvB_AW_f78uJxgz17riM-82" value="key_in[51]" style="text;html=1;align=center;verticalAlign=middle;whiteSpace=wrap;rounded=0;" vertex="1" parent="1">
          <mxGeometry x="130" y="-20" width="60" height="20" as="geometry" />
        </mxCell>
        <mxCell id="RvB_AW_f78uJxgz17riM-83" value="key_in[47]" style="text;html=1;align=center;verticalAlign=middle;whiteSpace=wrap;rounded=0;" vertex="1" parent="1">
          <mxGeometry x="370" y="-20" width="60" height="20" as="geometry" />
        </mxCell>
        <mxCell id="RvB_AW_f78uJxgz17riM-84" value="key_in[48]" style="text;html=1;align=center;verticalAlign=middle;whiteSpace=wrap;rounded=0;" vertex="1" parent="1">
          <mxGeometry x="310" y="-20" width="60" height="20" as="geometry" />
        </mxCell>
        <mxCell id="RvB_AW_f78uJxgz17riM-85" value="key_in[46]" style="text;html=1;align=center;verticalAlign=middle;whiteSpace=wrap;rounded=0;" vertex="1" parent="1">
          <mxGeometry x="430" y="-20" width="60" height="20" as="geometry" />
        </mxCell>
        <mxCell id="RvB_AW_f78uJxgz17riM-86" value="key_in[44]" style="text;html=1;align=center;verticalAlign=middle;whiteSpace=wrap;rounded=0;" vertex="1" parent="1">
          <mxGeometry x="550" y="-20" width="60" height="20" as="geometry" />
        </mxCell>
        <mxCell id="RvB_AW_f78uJxgz17riM-87" value="key_in[45]" style="text;html=1;align=center;verticalAlign=middle;whiteSpace=wrap;rounded=0;" vertex="1" parent="1">
          <mxGeometry x="490" y="-20" width="60" height="20" as="geometry" />
        </mxCell>
        <mxCell id="RvB_AW_f78uJxgz17riM-88" value="key_in[43]" style="text;html=1;align=center;verticalAlign=middle;whiteSpace=wrap;rounded=0;" vertex="1" parent="1">
          <mxGeometry x="610" y="-20" width="60" height="20" as="geometry" />
        </mxCell>
        <mxCell id="RvB_AW_f78uJxgz17riM-89" value="key_in[42]" style="text;html=1;align=center;verticalAlign=middle;whiteSpace=wrap;rounded=0;" vertex="1" parent="1">
          <mxGeometry x="670" y="-20" width="60" height="20" as="geometry" />
        </mxCell>
        <mxCell id="RvB_AW_f78uJxgz17riM-90" value="key_in[41]" style="text;html=1;align=center;verticalAlign=middle;whiteSpace=wrap;rounded=0;" vertex="1" parent="1">
          <mxGeometry x="730" y="-20" width="60" height="20" as="geometry" />
        </mxCell>
        <mxCell id="RvB_AW_f78uJxgz17riM-91" value="key_in[40]" style="text;html=1;align=center;verticalAlign=middle;whiteSpace=wrap;rounded=0;" vertex="1" parent="1">
          <mxGeometry x="790" y="-20" width="60" height="20" as="geometry" />
        </mxCell>
        <mxCell id="RvB_AW_f78uJxgz17riM-92" value="key_in[39]" style="text;html=1;align=center;verticalAlign=middle;whiteSpace=wrap;rounded=0;" vertex="1" parent="1">
          <mxGeometry x="850" y="-20" width="60" height="20" as="geometry" />
        </mxCell>
        <mxCell id="RvB_AW_f78uJxgz17riM-93" value="key_in[38]" style="text;html=1;align=center;verticalAlign=middle;whiteSpace=wrap;rounded=0;" vertex="1" parent="1">
          <mxGeometry x="910" y="-20" width="60" height="20" as="geometry" />
        </mxCell>
        <mxCell id="RvB_AW_f78uJxgz17riM-94" value="key_in[37]" style="text;html=1;align=center;verticalAlign=middle;whiteSpace=wrap;rounded=0;" vertex="1" parent="1">
          <mxGeometry x="970" y="-20" width="60" height="20" as="geometry" />
        </mxCell>
        <mxCell id="RvB_AW_f78uJxgz17riM-95" value="key_in[54]" style="text;html=1;align=center;verticalAlign=middle;whiteSpace=wrap;rounded=0;" vertex="1" parent="1">
          <mxGeometry x="-50" y="-20" width="60" height="20" as="geometry" />
        </mxCell>
        <mxCell id="RvB_AW_f78uJxgz17riM-96" value="key_in[55]" style="text;html=1;align=center;verticalAlign=middle;whiteSpace=wrap;rounded=0;" vertex="1" parent="1">
          <mxGeometry x="-110" y="-20" width="60" height="20" as="geometry" />
        </mxCell>
        <mxCell id="RvB_AW_f78uJxgz17riM-97" value="key_in[56]" style="text;html=1;align=center;verticalAlign=middle;whiteSpace=wrap;rounded=0;" vertex="1" parent="1">
          <mxGeometry x="-170" y="-20" width="60" height="20" as="geometry" />
        </mxCell>
        <mxCell id="RvB_AW_f78uJxgz17riM-98" value="key_in[57]" style="text;html=1;align=center;verticalAlign=middle;whiteSpace=wrap;rounded=0;" vertex="1" parent="1">
          <mxGeometry x="-230" y="-20" width="60" height="20" as="geometry" />
        </mxCell>
        <mxCell id="RvB_AW_f78uJxgz17riM-99" value="key_in[58]" style="text;html=1;align=center;verticalAlign=middle;whiteSpace=wrap;rounded=0;" vertex="1" parent="1">
          <mxGeometry x="-290" y="-20" width="60" height="20" as="geometry" />
        </mxCell>
        <mxCell id="RvB_AW_f78uJxgz17riM-100" value="key_in[36]" style="text;html=1;align=center;verticalAlign=middle;whiteSpace=wrap;rounded=0;" vertex="1" parent="1">
          <mxGeometry x="1030" y="-20" width="60" height="20" as="geometry" />
        </mxCell>
        <mxCell id="RvB_AW_f78uJxgz17riM-101" value="key_in[60]" style="text;html=1;align=center;verticalAlign=middle;whiteSpace=wrap;rounded=0;" vertex="1" parent="1">
          <mxGeometry x="-410" y="-20" width="60" height="20" as="geometry" />
        </mxCell>
        <mxCell id="RvB_AW_f78uJxgz17riM-102" value="key_in[61]" style="text;html=1;align=center;verticalAlign=middle;whiteSpace=wrap;rounded=0;" vertex="1" parent="1">
          <mxGeometry x="-470" y="-20" width="60" height="20" as="geometry" />
        </mxCell>
        <mxCell id="RvB_AW_f78uJxgz17riM-103" value="key_in[59]" style="text;html=1;align=center;verticalAlign=middle;whiteSpace=wrap;rounded=0;" vertex="1" parent="1">
          <mxGeometry x="-350" y="-20" width="60" height="20" as="geometry" />
        </mxCell>
        <mxCell id="RvB_AW_f78uJxgz17riM-104" value="key_in[63]" style="text;html=1;align=center;verticalAlign=middle;whiteSpace=wrap;rounded=0;" vertex="1" parent="1">
          <mxGeometry x="-590" y="-20" width="60" height="20" as="geometry" />
        </mxCell>
        <mxCell id="RvB_AW_f78uJxgz17riM-105" value="key_in[35]" style="text;html=1;align=center;verticalAlign=middle;whiteSpace=wrap;rounded=0;" vertex="1" parent="1">
          <mxGeometry x="1090" y="-20" width="60" height="20" as="geometry" />
        </mxCell>
        <mxCell id="RvB_AW_f78uJxgz17riM-106" value="key_in[62]" style="text;html=1;align=center;verticalAlign=middle;whiteSpace=wrap;rounded=0;" vertex="1" parent="1">
          <mxGeometry x="-530" y="-20" width="60" height="20" as="geometry" />
        </mxCell>
        <mxCell id="RvB_AW_f78uJxgz17riM-107" value="key_in[33]" style="text;html=1;align=center;verticalAlign=middle;whiteSpace=wrap;rounded=0;" vertex="1" parent="1">
          <mxGeometry x="1210" y="-20" width="60" height="20" as="geometry" />
        </mxCell>
        <mxCell id="RvB_AW_f78uJxgz17riM-108" value="key_in[34]" style="text;html=1;align=center;verticalAlign=middle;whiteSpace=wrap;rounded=0;" vertex="1" parent="1">
          <mxGeometry x="1150" y="-20" width="60" height="20" as="geometry" />
        </mxCell>
        <mxCell id="RvB_AW_f78uJxgz17riM-109" value="key_in[32]" style="text;html=1;align=center;verticalAlign=middle;whiteSpace=wrap;rounded=0;" vertex="1" parent="1">
          <mxGeometry x="1270" y="-20" width="60" height="20" as="geometry" />
        </mxCell>
        <mxCell id="RvB_AW_f78uJxgz17riM-117" value="key_in[21]" style="text;html=1;align=center;verticalAlign=middle;whiteSpace=wrap;rounded=0;" vertex="1" parent="1">
          <mxGeometry x="10" y="650" width="60" height="20" as="geometry" />
        </mxCell>
        <mxCell id="RvB_AW_f78uJxgz17riM-118" value="key_in[20]" style="text;html=1;align=center;verticalAlign=middle;whiteSpace=wrap;rounded=0;" vertex="1" parent="1">
          <mxGeometry x="70" y="650" width="60" height="20" as="geometry" />
        </mxCell>
        <mxCell id="RvB_AW_f78uJxgz17riM-119" value="key_in[17]" style="text;html=1;align=center;verticalAlign=middle;whiteSpace=wrap;rounded=0;" vertex="1" parent="1">
          <mxGeometry x="250" y="650" width="60" height="20" as="geometry" />
        </mxCell>
        <mxCell id="RvB_AW_f78uJxgz17riM-120" value="key_in[18]" style="text;html=1;align=center;verticalAlign=middle;whiteSpace=wrap;rounded=0;" vertex="1" parent="1">
          <mxGeometry x="190" y="650" width="60" height="20" as="geometry" />
        </mxCell>
        <mxCell id="RvB_AW_f78uJxgz17riM-121" value="key_in[19]" style="text;html=1;align=center;verticalAlign=middle;whiteSpace=wrap;rounded=0;" vertex="1" parent="1">
          <mxGeometry x="130" y="650" width="60" height="20" as="geometry" />
        </mxCell>
        <mxCell id="RvB_AW_f78uJxgz17riM-122" value="key_in[15]" style="text;html=1;align=center;verticalAlign=middle;whiteSpace=wrap;rounded=0;" vertex="1" parent="1">
          <mxGeometry x="370" y="650" width="60" height="20" as="geometry" />
        </mxCell>
        <mxCell id="RvB_AW_f78uJxgz17riM-123" value="key_in[16]" style="text;html=1;align=center;verticalAlign=middle;whiteSpace=wrap;rounded=0;" vertex="1" parent="1">
          <mxGeometry x="310" y="650" width="60" height="20" as="geometry" />
        </mxCell>
        <mxCell id="RvB_AW_f78uJxgz17riM-124" value="key_in[14]" style="text;html=1;align=center;verticalAlign=middle;whiteSpace=wrap;rounded=0;" vertex="1" parent="1">
          <mxGeometry x="430" y="650" width="60" height="20" as="geometry" />
        </mxCell>
        <mxCell id="RvB_AW_f78uJxgz17riM-125" value="key_in[12]" style="text;html=1;align=center;verticalAlign=middle;whiteSpace=wrap;rounded=0;" vertex="1" parent="1">
          <mxGeometry x="550" y="650" width="60" height="20" as="geometry" />
        </mxCell>
        <mxCell id="RvB_AW_f78uJxgz17riM-126" value="key_in[13]" style="text;html=1;align=center;verticalAlign=middle;whiteSpace=wrap;rounded=0;" vertex="1" parent="1">
          <mxGeometry x="490" y="650" width="60" height="20" as="geometry" />
        </mxCell>
        <mxCell id="RvB_AW_f78uJxgz17riM-127" value="key_in[11]" style="text;html=1;align=center;verticalAlign=middle;whiteSpace=wrap;rounded=0;" vertex="1" parent="1">
          <mxGeometry x="610" y="650" width="60" height="20" as="geometry" />
        </mxCell>
        <mxCell id="RvB_AW_f78uJxgz17riM-128" value="key_in[10]" style="text;html=1;align=center;verticalAlign=middle;whiteSpace=wrap;rounded=0;" vertex="1" parent="1">
          <mxGeometry x="670" y="650" width="60" height="20" as="geometry" />
        </mxCell>
        <mxCell id="RvB_AW_f78uJxgz17riM-129" value="key_in[9]" style="text;html=1;align=center;verticalAlign=middle;whiteSpace=wrap;rounded=0;" vertex="1" parent="1">
          <mxGeometry x="730" y="650" width="60" height="20" as="geometry" />
        </mxCell>
        <mxCell id="RvB_AW_f78uJxgz17riM-130" value="key_in[8]" style="text;html=1;align=center;verticalAlign=middle;whiteSpace=wrap;rounded=0;" vertex="1" parent="1">
          <mxGeometry x="790" y="650" width="60" height="20" as="geometry" />
        </mxCell>
        <mxCell id="RvB_AW_f78uJxgz17riM-131" value="key_in[7]" style="text;html=1;align=center;verticalAlign=middle;whiteSpace=wrap;rounded=0;" vertex="1" parent="1">
          <mxGeometry x="850" y="650" width="60" height="20" as="geometry" />
        </mxCell>
        <mxCell id="RvB_AW_f78uJxgz17riM-132" value="key_in[6]" style="text;html=1;align=center;verticalAlign=middle;whiteSpace=wrap;rounded=0;" vertex="1" parent="1">
          <mxGeometry x="910" y="650" width="60" height="20" as="geometry" />
        </mxCell>
        <mxCell id="RvB_AW_f78uJxgz17riM-133" value="key_in[5]" style="text;html=1;align=center;verticalAlign=middle;whiteSpace=wrap;rounded=0;" vertex="1" parent="1">
          <mxGeometry x="970" y="650" width="60" height="20" as="geometry" />
        </mxCell>
        <mxCell id="RvB_AW_f78uJxgz17riM-134" value="key_in[22]" style="text;html=1;align=center;verticalAlign=middle;whiteSpace=wrap;rounded=0;" vertex="1" parent="1">
          <mxGeometry x="-50" y="650" width="60" height="20" as="geometry" />
        </mxCell>
        <mxCell id="RvB_AW_f78uJxgz17riM-135" value="key_in[23]" style="text;html=1;align=center;verticalAlign=middle;whiteSpace=wrap;rounded=0;" vertex="1" parent="1">
          <mxGeometry x="-110" y="650" width="60" height="20" as="geometry" />
        </mxCell>
        <mxCell id="RvB_AW_f78uJxgz17riM-136" value="key_in[24]" style="text;html=1;align=center;verticalAlign=middle;whiteSpace=wrap;rounded=0;" vertex="1" parent="1">
          <mxGeometry x="-170" y="650" width="60" height="20" as="geometry" />
        </mxCell>
        <mxCell id="RvB_AW_f78uJxgz17riM-137" value="key_in[25]" style="text;html=1;align=center;verticalAlign=middle;whiteSpace=wrap;rounded=0;" vertex="1" parent="1">
          <mxGeometry x="-230" y="650" width="60" height="20" as="geometry" />
        </mxCell>
        <mxCell id="RvB_AW_f78uJxgz17riM-138" value="key_in[26]" style="text;html=1;align=center;verticalAlign=middle;whiteSpace=wrap;rounded=0;" vertex="1" parent="1">
          <mxGeometry x="-290" y="650" width="60" height="20" as="geometry" />
        </mxCell>
        <mxCell id="RvB_AW_f78uJxgz17riM-139" value="key_in[4]" style="text;html=1;align=center;verticalAlign=middle;whiteSpace=wrap;rounded=0;" vertex="1" parent="1">
          <mxGeometry x="1030" y="650" width="60" height="20" as="geometry" />
        </mxCell>
        <mxCell id="RvB_AW_f78uJxgz17riM-140" value="key_in[28]" style="text;html=1;align=center;verticalAlign=middle;whiteSpace=wrap;rounded=0;" vertex="1" parent="1">
          <mxGeometry x="-410" y="650" width="60" height="20" as="geometry" />
        </mxCell>
        <mxCell id="RvB_AW_f78uJxgz17riM-141" value="key_in[29]" style="text;html=1;align=center;verticalAlign=middle;whiteSpace=wrap;rounded=0;" vertex="1" parent="1">
          <mxGeometry x="-470" y="650" width="60" height="20" as="geometry" />
        </mxCell>
        <mxCell id="RvB_AW_f78uJxgz17riM-142" value="key_in[27]" style="text;html=1;align=center;verticalAlign=middle;whiteSpace=wrap;rounded=0;" vertex="1" parent="1">
          <mxGeometry x="-350" y="650" width="60" height="20" as="geometry" />
        </mxCell>
        <mxCell id="RvB_AW_f78uJxgz17riM-143" value="key_in[31]" style="text;html=1;align=center;verticalAlign=middle;whiteSpace=wrap;rounded=0;" vertex="1" parent="1">
          <mxGeometry x="-590" y="650" width="60" height="20" as="geometry" />
        </mxCell>
        <mxCell id="RvB_AW_f78uJxgz17riM-144" value="key_in[3]" style="text;html=1;align=center;verticalAlign=middle;whiteSpace=wrap;rounded=0;" vertex="1" parent="1">
          <mxGeometry x="1090" y="650" width="60" height="20" as="geometry" />
        </mxCell>
        <mxCell id="RvB_AW_f78uJxgz17riM-145" value="key_in[30]" style="text;html=1;align=center;verticalAlign=middle;whiteSpace=wrap;rounded=0;" vertex="1" parent="1">
          <mxGeometry x="-530" y="650" width="60" height="20" as="geometry" />
        </mxCell>
        <mxCell id="RvB_AW_f78uJxgz17riM-146" value="key_in[1]" style="text;html=1;align=center;verticalAlign=middle;whiteSpace=wrap;rounded=0;" vertex="1" parent="1">
          <mxGeometry x="1210" y="650" width="60" height="20" as="geometry" />
        </mxCell>
        <mxCell id="RvB_AW_f78uJxgz17riM-147" value="key_in[2]" style="text;html=1;align=center;verticalAlign=middle;whiteSpace=wrap;rounded=0;" vertex="1" parent="1">
          <mxGeometry x="1150" y="650" width="60" height="20" as="geometry" />
        </mxCell>
        <mxCell id="RvB_AW_f78uJxgz17riM-148" value="key_in[0]" style="text;html=1;align=center;verticalAlign=middle;whiteSpace=wrap;rounded=0;" vertex="1" parent="1">
          <mxGeometry x="1270" y="650" width="60" height="20" as="geometry" />
        </mxCell>
        <mxCell id="RvB_AW_f78uJxgz17riM-149" value="c0[27]" style="text;html=1;align=center;verticalAlign=middle;whiteSpace=wrap;rounded=0;" vertex="1" parent="1">
          <mxGeometry x="-690" y="50" width="60" height="20" as="geometry" />
        </mxCell>
        <mxCell id="RvB_AW_f78uJxgz17riM-150" value="c0[2]" style="text;html=1;align=center;verticalAlign=middle;whiteSpace=wrap;rounded=0;" vertex="1" parent="1">
          <mxGeometry x="-690" y="550" width="60" height="20" as="geometry" />
        </mxCell>
        <mxCell id="RvB_AW_f78uJxgz17riM-151" value="c0[0]" style="text;html=1;align=center;verticalAlign=middle;whiteSpace=wrap;rounded=0;" vertex="1" parent="1">
          <mxGeometry x="-690" y="590" width="60" height="20" as="geometry" />
        </mxCell>
        <mxCell id="RvB_AW_f78uJxgz17riM-152" value="c0[3]" style="text;html=1;align=center;verticalAlign=middle;whiteSpace=wrap;rounded=0;" vertex="1" parent="1">
          <mxGeometry x="-690" y="530" width="60" height="20" as="geometry" />
        </mxCell>
        <mxCell id="RvB_AW_f78uJxgz17riM-153" value="c0[1]" style="text;html=1;align=center;verticalAlign=middle;whiteSpace=wrap;rounded=0;" vertex="1" parent="1">
          <mxGeometry x="-690" y="570" width="60" height="20" as="geometry" />
        </mxCell>
        <mxCell id="RvB_AW_f78uJxgz17riM-154" value="c0[4]" style="text;html=1;align=center;verticalAlign=middle;whiteSpace=wrap;rounded=0;" vertex="1" parent="1">
          <mxGeometry x="-690" y="510" width="60" height="20" as="geometry" />
        </mxCell>
        <mxCell id="RvB_AW_f78uJxgz17riM-155" value="c0[5]" style="text;html=1;align=center;verticalAlign=middle;whiteSpace=wrap;rounded=0;" vertex="1" parent="1">
          <mxGeometry x="-690" y="490" width="60" height="20" as="geometry" />
        </mxCell>
        <mxCell id="RvB_AW_f78uJxgz17riM-156" value="c0[6]" style="text;html=1;align=center;verticalAlign=middle;whiteSpace=wrap;rounded=0;" vertex="1" parent="1">
          <mxGeometry x="-690" y="470" width="60" height="20" as="geometry" />
        </mxCell>
        <mxCell id="RvB_AW_f78uJxgz17riM-157" value="c0[7]" style="text;html=1;align=center;verticalAlign=middle;whiteSpace=wrap;rounded=0;" vertex="1" parent="1">
          <mxGeometry x="-690" y="450" width="60" height="20" as="geometry" />
        </mxCell>
        <mxCell id="RvB_AW_f78uJxgz17riM-158" value="c0[8]" style="text;html=1;align=center;verticalAlign=middle;whiteSpace=wrap;rounded=0;" vertex="1" parent="1">
          <mxGeometry x="-690" y="430" width="60" height="20" as="geometry" />
        </mxCell>
        <mxCell id="RvB_AW_f78uJxgz17riM-159" value="c0[9]" style="text;html=1;align=center;verticalAlign=middle;whiteSpace=wrap;rounded=0;" vertex="1" parent="1">
          <mxGeometry x="-690" y="410" width="60" height="20" as="geometry" />
        </mxCell>
        <mxCell id="RvB_AW_f78uJxgz17riM-160" value="c0[10]" style="text;html=1;align=center;verticalAlign=middle;whiteSpace=wrap;rounded=0;" vertex="1" parent="1">
          <mxGeometry x="-690" y="390" width="60" height="20" as="geometry" />
        </mxCell>
        <mxCell id="RvB_AW_f78uJxgz17riM-161" value="c0[11]" style="text;html=1;align=center;verticalAlign=middle;whiteSpace=wrap;rounded=0;" vertex="1" parent="1">
          <mxGeometry x="-690" y="370" width="60" height="20" as="geometry" />
        </mxCell>
        <mxCell id="RvB_AW_f78uJxgz17riM-162" value="c0[12]" style="text;html=1;align=center;verticalAlign=middle;whiteSpace=wrap;rounded=0;" vertex="1" parent="1">
          <mxGeometry x="-690" y="350" width="60" height="20" as="geometry" />
        </mxCell>
        <mxCell id="RvB_AW_f78uJxgz17riM-163" value="c0[13]" style="text;html=1;align=center;verticalAlign=middle;whiteSpace=wrap;rounded=0;" vertex="1" parent="1">
          <mxGeometry x="-690" y="330" width="60" height="20" as="geometry" />
        </mxCell>
        <mxCell id="RvB_AW_f78uJxgz17riM-164" value="c0[14]" style="text;html=1;align=center;verticalAlign=middle;whiteSpace=wrap;rounded=0;" vertex="1" parent="1">
          <mxGeometry x="-690" y="310" width="60" height="20" as="geometry" />
        </mxCell>
        <mxCell id="RvB_AW_f78uJxgz17riM-165" value="c0[15]" style="text;html=1;align=center;verticalAlign=middle;whiteSpace=wrap;rounded=0;" vertex="1" parent="1">
          <mxGeometry x="-690" y="290" width="60" height="20" as="geometry" />
        </mxCell>
        <mxCell id="RvB_AW_f78uJxgz17riM-166" value="c0[16]" style="text;html=1;align=center;verticalAlign=middle;whiteSpace=wrap;rounded=0;" vertex="1" parent="1">
          <mxGeometry x="-690" y="270" width="60" height="20" as="geometry" />
        </mxCell>
        <mxCell id="RvB_AW_f78uJxgz17riM-167" value="c0[17]" style="text;html=1;align=center;verticalAlign=middle;whiteSpace=wrap;rounded=0;" vertex="1" parent="1">
          <mxGeometry x="-690" y="250" width="60" height="20" as="geometry" />
        </mxCell>
        <mxCell id="RvB_AW_f78uJxgz17riM-168" value="c0[18]" style="text;html=1;align=center;verticalAlign=middle;whiteSpace=wrap;rounded=0;" vertex="1" parent="1">
          <mxGeometry x="-690" y="230" width="60" height="20" as="geometry" />
        </mxCell>
        <mxCell id="RvB_AW_f78uJxgz17riM-169" value="c0[19]" style="text;html=1;align=center;verticalAlign=middle;whiteSpace=wrap;rounded=0;" vertex="1" parent="1">
          <mxGeometry x="-690" y="210" width="60" height="20" as="geometry" />
        </mxCell>
        <mxCell id="RvB_AW_f78uJxgz17riM-170" value="c0[20]" style="text;html=1;align=center;verticalAlign=middle;whiteSpace=wrap;rounded=0;" vertex="1" parent="1">
          <mxGeometry x="-690" y="190" width="60" height="20" as="geometry" />
        </mxCell>
        <mxCell id="RvB_AW_f78uJxgz17riM-171" value="c0[21]" style="text;html=1;align=center;verticalAlign=middle;whiteSpace=wrap;rounded=0;" vertex="1" parent="1">
          <mxGeometry x="-690" y="170" width="60" height="20" as="geometry" />
        </mxCell>
        <mxCell id="RvB_AW_f78uJxgz17riM-172" value="c0[22]" style="text;html=1;align=center;verticalAlign=middle;whiteSpace=wrap;rounded=0;" vertex="1" parent="1">
          <mxGeometry x="-690" y="150" width="60" height="20" as="geometry" />
        </mxCell>
        <mxCell id="RvB_AW_f78uJxgz17riM-173" value="c0[24]" style="text;html=1;align=center;verticalAlign=middle;whiteSpace=wrap;rounded=0;" vertex="1" parent="1">
          <mxGeometry x="-690" y="110" width="60" height="20" as="geometry" />
        </mxCell>
        <mxCell id="RvB_AW_f78uJxgz17riM-174" value="c0[23]" style="text;html=1;align=center;verticalAlign=middle;whiteSpace=wrap;rounded=0;" vertex="1" parent="1">
          <mxGeometry x="-690" y="130" width="60" height="20" as="geometry" />
        </mxCell>
        <mxCell id="RvB_AW_f78uJxgz17riM-175" value="c0[25]" style="text;html=1;align=center;verticalAlign=middle;whiteSpace=wrap;rounded=0;" vertex="1" parent="1">
          <mxGeometry x="-690" y="90" width="60" height="20" as="geometry" />
        </mxCell>
        <mxCell id="RvB_AW_f78uJxgz17riM-176" value="c0[26]" style="text;html=1;align=center;verticalAlign=middle;whiteSpace=wrap;rounded=0;" vertex="1" parent="1">
          <mxGeometry x="-690" y="70" width="60" height="20" as="geometry" />
        </mxCell>
        <mxCell id="RvB_AW_f78uJxgz17riM-180" value="d0[27]" style="text;html=1;align=center;verticalAlign=middle;whiteSpace=wrap;rounded=0;" vertex="1" parent="1">
          <mxGeometry x="1380" y="50" width="60" height="20" as="geometry" />
        </mxCell>
        <mxCell id="RvB_AW_f78uJxgz17riM-181" value="d0[2]" style="text;html=1;align=center;verticalAlign=middle;whiteSpace=wrap;rounded=0;" vertex="1" parent="1">
          <mxGeometry x="1380" y="550" width="60" height="20" as="geometry" />
        </mxCell>
        <mxCell id="RvB_AW_f78uJxgz17riM-182" value="d0[0]" style="text;html=1;align=center;verticalAlign=middle;whiteSpace=wrap;rounded=0;" vertex="1" parent="1">
          <mxGeometry x="1380" y="590" width="60" height="20" as="geometry" />
        </mxCell>
        <mxCell id="RvB_AW_f78uJxgz17riM-183" value="d0[3]" style="text;html=1;align=center;verticalAlign=middle;whiteSpace=wrap;rounded=0;" vertex="1" parent="1">
          <mxGeometry x="1380" y="530" width="60" height="20" as="geometry" />
        </mxCell>
        <mxCell id="RvB_AW_f78uJxgz17riM-184" value="d0[1]" style="text;html=1;align=center;verticalAlign=middle;whiteSpace=wrap;rounded=0;" vertex="1" parent="1">
          <mxGeometry x="1380" y="570" width="60" height="20" as="geometry" />
        </mxCell>
        <mxCell id="RvB_AW_f78uJxgz17riM-185" value="d0[4]" style="text;html=1;align=center;verticalAlign=middle;whiteSpace=wrap;rounded=0;" vertex="1" parent="1">
          <mxGeometry x="1380" y="510" width="60" height="20" as="geometry" />
        </mxCell>
        <mxCell id="RvB_AW_f78uJxgz17riM-186" value="d0[5]" style="text;html=1;align=center;verticalAlign=middle;whiteSpace=wrap;rounded=0;" vertex="1" parent="1">
          <mxGeometry x="1380" y="490" width="60" height="20" as="geometry" />
        </mxCell>
        <mxCell id="RvB_AW_f78uJxgz17riM-187" value="d0[6]" style="text;html=1;align=center;verticalAlign=middle;whiteSpace=wrap;rounded=0;" vertex="1" parent="1">
          <mxGeometry x="1380" y="470" width="60" height="20" as="geometry" />
        </mxCell>
        <mxCell id="RvB_AW_f78uJxgz17riM-188" value="d0[7]" style="text;html=1;align=center;verticalAlign=middle;whiteSpace=wrap;rounded=0;" vertex="1" parent="1">
          <mxGeometry x="1380" y="450" width="60" height="20" as="geometry" />
        </mxCell>
        <mxCell id="RvB_AW_f78uJxgz17riM-189" value="d0[8]" style="text;html=1;align=center;verticalAlign=middle;whiteSpace=wrap;rounded=0;" vertex="1" parent="1">
          <mxGeometry x="1380" y="430" width="60" height="20" as="geometry" />
        </mxCell>
        <mxCell id="RvB_AW_f78uJxgz17riM-190" value="d0[9]" style="text;html=1;align=center;verticalAlign=middle;whiteSpace=wrap;rounded=0;" vertex="1" parent="1">
          <mxGeometry x="1380" y="410" width="60" height="20" as="geometry" />
        </mxCell>
        <mxCell id="RvB_AW_f78uJxgz17riM-191" value="d0[10]" style="text;html=1;align=center;verticalAlign=middle;whiteSpace=wrap;rounded=0;" vertex="1" parent="1">
          <mxGeometry x="1380" y="390" width="60" height="20" as="geometry" />
        </mxCell>
        <mxCell id="RvB_AW_f78uJxgz17riM-192" value="d0[11]" style="text;html=1;align=center;verticalAlign=middle;whiteSpace=wrap;rounded=0;" vertex="1" parent="1">
          <mxGeometry x="1380" y="370" width="60" height="20" as="geometry" />
        </mxCell>
        <mxCell id="RvB_AW_f78uJxgz17riM-193" value="d0[12]" style="text;html=1;align=center;verticalAlign=middle;whiteSpace=wrap;rounded=0;" vertex="1" parent="1">
          <mxGeometry x="1380" y="350" width="60" height="20" as="geometry" />
        </mxCell>
        <mxCell id="RvB_AW_f78uJxgz17riM-194" value="d0[13]" style="text;html=1;align=center;verticalAlign=middle;whiteSpace=wrap;rounded=0;" vertex="1" parent="1">
          <mxGeometry x="1380" y="330" width="60" height="20" as="geometry" />
        </mxCell>
        <mxCell id="RvB_AW_f78uJxgz17riM-195" value="d0[14]" style="text;html=1;align=center;verticalAlign=middle;whiteSpace=wrap;rounded=0;" vertex="1" parent="1">
          <mxGeometry x="1380" y="310" width="60" height="20" as="geometry" />
        </mxCell>
        <mxCell id="RvB_AW_f78uJxgz17riM-196" value="d0[15]" style="text;html=1;align=center;verticalAlign=middle;whiteSpace=wrap;rounded=0;" vertex="1" parent="1">
          <mxGeometry x="1380" y="290" width="60" height="20" as="geometry" />
        </mxCell>
        <mxCell id="RvB_AW_f78uJxgz17riM-197" value="d0[16]" style="text;html=1;align=center;verticalAlign=middle;whiteSpace=wrap;rounded=0;" vertex="1" parent="1">
          <mxGeometry x="1380" y="270" width="60" height="20" as="geometry" />
        </mxCell>
        <mxCell id="RvB_AW_f78uJxgz17riM-198" value="d0[17]" style="text;html=1;align=center;verticalAlign=middle;whiteSpace=wrap;rounded=0;" vertex="1" parent="1">
          <mxGeometry x="1380" y="250" width="60" height="20" as="geometry" />
        </mxCell>
        <mxCell id="RvB_AW_f78uJxgz17riM-199" value="d0[18]" style="text;html=1;align=center;verticalAlign=middle;whiteSpace=wrap;rounded=0;" vertex="1" parent="1">
          <mxGeometry x="1380" y="230" width="60" height="20" as="geometry" />
        </mxCell>
        <mxCell id="RvB_AW_f78uJxgz17riM-200" value="d0[19]" style="text;html=1;align=center;verticalAlign=middle;whiteSpace=wrap;rounded=0;" vertex="1" parent="1">
          <mxGeometry x="1380" y="210" width="60" height="20" as="geometry" />
        </mxCell>
        <mxCell id="RvB_AW_f78uJxgz17riM-201" value="d0[20]" style="text;html=1;align=center;verticalAlign=middle;whiteSpace=wrap;rounded=0;" vertex="1" parent="1">
          <mxGeometry x="1380" y="190" width="60" height="20" as="geometry" />
        </mxCell>
        <mxCell id="RvB_AW_f78uJxgz17riM-202" value="d0[21]" style="text;html=1;align=center;verticalAlign=middle;whiteSpace=wrap;rounded=0;" vertex="1" parent="1">
          <mxGeometry x="1380" y="170" width="60" height="20" as="geometry" />
        </mxCell>
        <mxCell id="RvB_AW_f78uJxgz17riM-203" value="d0[22]" style="text;html=1;align=center;verticalAlign=middle;whiteSpace=wrap;rounded=0;" vertex="1" parent="1">
          <mxGeometry x="1380" y="150" width="60" height="20" as="geometry" />
        </mxCell>
        <mxCell id="RvB_AW_f78uJxgz17riM-204" value="d0[24]" style="text;html=1;align=center;verticalAlign=middle;whiteSpace=wrap;rounded=0;" vertex="1" parent="1">
          <mxGeometry x="1380" y="110" width="60" height="20" as="geometry" />
        </mxCell>
        <mxCell id="RvB_AW_f78uJxgz17riM-205" value="d0[23]" style="text;html=1;align=center;verticalAlign=middle;whiteSpace=wrap;rounded=0;" vertex="1" parent="1">
          <mxGeometry x="1380" y="130" width="60" height="20" as="geometry" />
        </mxCell>
        <mxCell id="RvB_AW_f78uJxgz17riM-206" value="d0[25]" style="text;html=1;align=center;verticalAlign=middle;whiteSpace=wrap;rounded=0;" vertex="1" parent="1">
          <mxGeometry x="1380" y="90" width="60" height="20" as="geometry" />
        </mxCell>
        <mxCell id="RvB_AW_f78uJxgz17riM-207" value="d0[26]" style="text;html=1;align=center;verticalAlign=middle;whiteSpace=wrap;rounded=0;" vertex="1" parent="1">
          <mxGeometry x="1380" y="70" width="60" height="20" as="geometry" />
        </mxCell>
        <mxCell id="RvB_AW_f78uJxgz17riM-432" style="edgeStyle=orthogonalEdgeStyle;rounded=0;orthogonalLoop=1;jettySize=auto;html=1;exitX=1;exitY=0.5;exitDx=0;exitDy=0;entryX=1;entryY=0.5;entryDx=0;entryDy=0;" edge="1" parent="1" source="RvB_AW_f78uJxgz17riM-208" target="RvB_AW_f78uJxgz17riM-170">
          <mxGeometry relative="1" as="geometry">
            <Array as="points">
              <mxPoint x="-560" y="50" />
              <mxPoint x="-540" y="50" />
              <mxPoint x="-540" y="200" />
            </Array>
          </mxGeometry>
        </mxCell>
        <mxCell id="RvB_AW_f78uJxgz17riM-208" value="" style="triangle;whiteSpace=wrap;html=1;rotation=90;" vertex="1" parent="1">
          <mxGeometry x="-570" y="10" width="20" height="30" as="geometry" />
        </mxCell>
        <mxCell id="RvB_AW_f78uJxgz17riM-445" style="edgeStyle=orthogonalEdgeStyle;rounded=0;orthogonalLoop=1;jettySize=auto;html=1;exitX=1;exitY=0.5;exitDx=0;exitDy=0;entryX=1;entryY=0.5;entryDx=0;entryDy=0;" edge="1" parent="1" source="RvB_AW_f78uJxgz17riM-209" target="RvB_AW_f78uJxgz17riM-162">
          <mxGeometry relative="1" as="geometry">
            <Array as="points">
              <mxPoint x="-500" y="50" />
              <mxPoint x="-480" y="50" />
              <mxPoint x="-480" y="360" />
            </Array>
          </mxGeometry>
        </mxCell>
        <mxCell id="RvB_AW_f78uJxgz17riM-209" value="" style="triangle;whiteSpace=wrap;html=1;rotation=90;" vertex="1" parent="1">
          <mxGeometry x="-510" y="10" width="20" height="30" as="geometry" />
        </mxCell>
        <mxCell id="RvB_AW_f78uJxgz17riM-481" style="edgeStyle=orthogonalEdgeStyle;rounded=0;orthogonalLoop=1;jettySize=auto;html=1;exitX=1;exitY=0.5;exitDx=0;exitDy=0;entryX=0;entryY=0.5;entryDx=0;entryDy=0;" edge="1" parent="1" source="RvB_AW_f78uJxgz17riM-210" target="RvB_AW_f78uJxgz17riM-187">
          <mxGeometry relative="1" as="geometry" />
        </mxCell>
        <mxCell id="RvB_AW_f78uJxgz17riM-210" value="" style="triangle;whiteSpace=wrap;html=1;rotation=90;" vertex="1" parent="1">
          <mxGeometry x="630" y="10" width="20" height="30" as="geometry" />
        </mxCell>
        <mxCell id="RvB_AW_f78uJxgz17riM-473" style="edgeStyle=orthogonalEdgeStyle;rounded=0;orthogonalLoop=1;jettySize=auto;html=1;exitX=1;exitY=0.5;exitDx=0;exitDy=0;entryX=0;entryY=0.5;entryDx=0;entryDy=0;" edge="1" parent="1" source="RvB_AW_f78uJxgz17riM-211" target="RvB_AW_f78uJxgz17riM-195">
          <mxGeometry relative="1" as="geometry" />
        </mxCell>
        <mxCell id="RvB_AW_f78uJxgz17riM-211" value="" style="triangle;whiteSpace=wrap;html=1;rotation=90;" vertex="1" parent="1">
          <mxGeometry x="690" y="10" width="20" height="30" as="geometry" />
        </mxCell>
        <mxCell id="RvB_AW_f78uJxgz17riM-463" style="edgeStyle=orthogonalEdgeStyle;rounded=0;orthogonalLoop=1;jettySize=auto;html=1;exitX=1;exitY=0.5;exitDx=0;exitDy=0;entryX=0;entryY=0.5;entryDx=0;entryDy=0;" edge="1" parent="1" source="RvB_AW_f78uJxgz17riM-212" target="RvB_AW_f78uJxgz17riM-203">
          <mxGeometry relative="1" as="geometry" />
        </mxCell>
        <mxCell id="RvB_AW_f78uJxgz17riM-212" value="" style="triangle;whiteSpace=wrap;html=1;rotation=90;" vertex="1" parent="1">
          <mxGeometry x="750" y="10" width="20" height="30" as="geometry" />
        </mxCell>
        <mxCell id="RvB_AW_f78uJxgz17riM-213" value="" style="triangle;whiteSpace=wrap;html=1;rotation=90;" vertex="1" parent="1">
          <mxGeometry x="810" y="10" width="20" height="30" as="geometry" />
        </mxCell>
        <mxCell id="RvB_AW_f78uJxgz17riM-214" value="" style="triangle;whiteSpace=wrap;html=1;rotation=90;" vertex="1" parent="1">
          <mxGeometry x="1290" y="10" width="20" height="30" as="geometry" />
        </mxCell>
        <mxCell id="RvB_AW_f78uJxgz17riM-462" style="edgeStyle=orthogonalEdgeStyle;rounded=0;orthogonalLoop=1;jettySize=auto;html=1;exitX=1;exitY=0.5;exitDx=0;exitDy=0;entryX=0;entryY=0.5;entryDx=0;entryDy=0;" edge="1" parent="1" source="RvB_AW_f78uJxgz17riM-215" target="RvB_AW_f78uJxgz17riM-205">
          <mxGeometry relative="1" as="geometry" />
        </mxCell>
        <mxCell id="RvB_AW_f78uJxgz17riM-215" value="" style="triangle;whiteSpace=wrap;html=1;rotation=90;" vertex="1" parent="1">
          <mxGeometry x="1230" y="10" width="20" height="30" as="geometry" />
        </mxCell>
        <mxCell id="RvB_AW_f78uJxgz17riM-472" style="edgeStyle=orthogonalEdgeStyle;rounded=0;orthogonalLoop=1;jettySize=auto;html=1;exitX=1;exitY=0.5;exitDx=0;exitDy=0;entryX=0;entryY=0.5;entryDx=0;entryDy=0;" edge="1" parent="1" source="RvB_AW_f78uJxgz17riM-216" target="RvB_AW_f78uJxgz17riM-196">
          <mxGeometry relative="1" as="geometry">
            <Array as="points">
              <mxPoint x="1180" y="50" />
              <mxPoint x="1200" y="50" />
              <mxPoint x="1200" y="300" />
            </Array>
          </mxGeometry>
        </mxCell>
        <mxCell id="RvB_AW_f78uJxgz17riM-216" value="" style="triangle;whiteSpace=wrap;html=1;rotation=90;" vertex="1" parent="1">
          <mxGeometry x="1170" y="10" width="20" height="30" as="geometry" />
        </mxCell>
        <mxCell id="RvB_AW_f78uJxgz17riM-480" style="edgeStyle=orthogonalEdgeStyle;rounded=0;orthogonalLoop=1;jettySize=auto;html=1;exitX=1;exitY=0.5;exitDx=0;exitDy=0;entryX=0;entryY=0.5;entryDx=0;entryDy=0;" edge="1" parent="1" source="RvB_AW_f78uJxgz17riM-217" target="RvB_AW_f78uJxgz17riM-188">
          <mxGeometry relative="1" as="geometry" />
        </mxCell>
        <mxCell id="RvB_AW_f78uJxgz17riM-217" value="" style="triangle;whiteSpace=wrap;html=1;rotation=90;" vertex="1" parent="1">
          <mxGeometry x="1110" y="10" width="20" height="30" as="geometry" />
        </mxCell>
        <mxCell id="RvB_AW_f78uJxgz17riM-484" style="edgeStyle=orthogonalEdgeStyle;rounded=0;orthogonalLoop=1;jettySize=auto;html=1;exitX=1;exitY=0.5;exitDx=0;exitDy=0;entryX=0;entryY=0.5;entryDx=0;entryDy=0;" edge="1" parent="1" source="RvB_AW_f78uJxgz17riM-218" target="RvB_AW_f78uJxgz17riM-183">
          <mxGeometry relative="1" as="geometry" />
        </mxCell>
        <mxCell id="RvB_AW_f78uJxgz17riM-218" value="" style="triangle;whiteSpace=wrap;html=1;rotation=90;" vertex="1" parent="1">
          <mxGeometry x="1050" y="10" width="20" height="30" as="geometry" />
        </mxCell>
        <mxCell id="RvB_AW_f78uJxgz17riM-450" style="edgeStyle=orthogonalEdgeStyle;rounded=0;orthogonalLoop=1;jettySize=auto;html=1;exitX=1;exitY=0.5;exitDx=0;exitDy=0;entryX=1;entryY=0.5;entryDx=0;entryDy=0;" edge="1" parent="1" source="RvB_AW_f78uJxgz17riM-219" target="RvB_AW_f78uJxgz17riM-157">
          <mxGeometry relative="1" as="geometry">
            <Array as="points">
              <mxPoint x="1000" y="60" />
              <mxPoint x="1020" y="60" />
              <mxPoint x="1020" y="460" />
            </Array>
          </mxGeometry>
        </mxCell>
        <mxCell id="RvB_AW_f78uJxgz17riM-219" value="" style="triangle;whiteSpace=wrap;html=1;rotation=90;" vertex="1" parent="1">
          <mxGeometry x="990" y="10" width="20" height="30" as="geometry" />
        </mxCell>
        <mxCell id="RvB_AW_f78uJxgz17riM-440" style="edgeStyle=orthogonalEdgeStyle;rounded=0;orthogonalLoop=1;jettySize=auto;html=1;exitX=1;exitY=0.5;exitDx=0;exitDy=0;entryX=1;entryY=0.5;entryDx=0;entryDy=0;" edge="1" parent="1" source="RvB_AW_f78uJxgz17riM-220" target="RvB_AW_f78uJxgz17riM-165">
          <mxGeometry relative="1" as="geometry">
            <Array as="points">
              <mxPoint x="940" y="60" />
              <mxPoint x="960" y="60" />
              <mxPoint x="960" y="300" />
            </Array>
          </mxGeometry>
        </mxCell>
        <mxCell id="RvB_AW_f78uJxgz17riM-220" value="" style="triangle;whiteSpace=wrap;html=1;rotation=90;" vertex="1" parent="1">
          <mxGeometry x="930" y="10" width="20" height="30" as="geometry" />
        </mxCell>
        <mxCell id="RvB_AW_f78uJxgz17riM-429" style="edgeStyle=orthogonalEdgeStyle;rounded=0;orthogonalLoop=1;jettySize=auto;html=1;exitX=1;exitY=0.5;exitDx=0;exitDy=0;entryX=1;entryY=0.5;entryDx=0;entryDy=0;" edge="1" parent="1" source="RvB_AW_f78uJxgz17riM-221" target="RvB_AW_f78uJxgz17riM-174">
          <mxGeometry relative="1" as="geometry" />
        </mxCell>
        <mxCell id="RvB_AW_f78uJxgz17riM-221" value="" style="triangle;whiteSpace=wrap;html=1;rotation=90;" vertex="1" parent="1">
          <mxGeometry x="870" y="10" width="20" height="30" as="geometry" />
        </mxCell>
        <mxCell id="RvB_AW_f78uJxgz17riM-485" style="edgeStyle=orthogonalEdgeStyle;rounded=0;orthogonalLoop=1;jettySize=auto;html=1;exitX=1;exitY=0.5;exitDx=0;exitDy=0;entryX=0;entryY=0.5;entryDx=0;entryDy=0;" edge="1" parent="1" source="RvB_AW_f78uJxgz17riM-222" target="RvB_AW_f78uJxgz17riM-181">
          <mxGeometry relative="1" as="geometry" />
        </mxCell>
        <mxCell id="RvB_AW_f78uJxgz17riM-222" value="" style="triangle;whiteSpace=wrap;html=1;rotation=90;" vertex="1" parent="1">
          <mxGeometry x="570" y="10" width="20" height="30" as="geometry" />
        </mxCell>
        <mxCell id="RvB_AW_f78uJxgz17riM-451" style="edgeStyle=orthogonalEdgeStyle;rounded=0;orthogonalLoop=1;jettySize=auto;html=1;exitX=1;exitY=0.5;exitDx=0;exitDy=0;entryX=1;entryY=0.5;entryDx=0;entryDy=0;" edge="1" parent="1" source="RvB_AW_f78uJxgz17riM-223" target="RvB_AW_f78uJxgz17riM-156">
          <mxGeometry relative="1" as="geometry">
            <Array as="points">
              <mxPoint x="520" y="50" />
              <mxPoint x="540" y="50" />
              <mxPoint x="540" y="480" />
            </Array>
          </mxGeometry>
        </mxCell>
        <mxCell id="RvB_AW_f78uJxgz17riM-223" value="" style="triangle;whiteSpace=wrap;html=1;rotation=90;" vertex="1" parent="1">
          <mxGeometry x="510" y="10" width="20" height="30" as="geometry" />
        </mxCell>
        <mxCell id="RvB_AW_f78uJxgz17riM-442" style="edgeStyle=orthogonalEdgeStyle;rounded=0;orthogonalLoop=1;jettySize=auto;html=1;exitX=1;exitY=0.5;exitDx=0;exitDy=0;entryX=1;entryY=0.5;entryDx=0;entryDy=0;" edge="1" parent="1" source="RvB_AW_f78uJxgz17riM-224" target="RvB_AW_f78uJxgz17riM-164">
          <mxGeometry relative="1" as="geometry">
            <Array as="points">
              <mxPoint x="460" y="50" />
              <mxPoint x="480" y="50" />
              <mxPoint x="480" y="320" />
            </Array>
          </mxGeometry>
        </mxCell>
        <mxCell id="RvB_AW_f78uJxgz17riM-224" value="" style="triangle;whiteSpace=wrap;html=1;rotation=90;" vertex="1" parent="1">
          <mxGeometry x="450" y="10" width="20" height="30" as="geometry" />
        </mxCell>
        <mxCell id="RvB_AW_f78uJxgz17riM-474" style="edgeStyle=orthogonalEdgeStyle;rounded=0;orthogonalLoop=1;jettySize=auto;html=1;exitX=1;exitY=0.5;exitDx=0;exitDy=0;entryX=0;entryY=0.5;entryDx=0;entryDy=0;" edge="1" parent="1" source="RvB_AW_f78uJxgz17riM-225" target="RvB_AW_f78uJxgz17riM-194">
          <mxGeometry relative="1" as="geometry" />
        </mxCell>
        <mxCell id="RvB_AW_f78uJxgz17riM-225" value="" style="triangle;whiteSpace=wrap;html=1;rotation=90;" vertex="1" parent="1">
          <mxGeometry x="210" y="10" width="20" height="30" as="geometry" />
        </mxCell>
        <mxCell id="RvB_AW_f78uJxgz17riM-430" style="edgeStyle=orthogonalEdgeStyle;rounded=0;orthogonalLoop=1;jettySize=auto;html=1;exitX=1;exitY=0.5;exitDx=0;exitDy=0;entryX=1;entryY=0.5;entryDx=0;entryDy=0;" edge="1" parent="1" source="RvB_AW_f78uJxgz17riM-226" target="RvB_AW_f78uJxgz17riM-172">
          <mxGeometry relative="1" as="geometry">
            <Array as="points">
              <mxPoint x="400" y="40" />
              <mxPoint x="420" y="40" />
              <mxPoint x="420" y="160" />
            </Array>
          </mxGeometry>
        </mxCell>
        <mxCell id="RvB_AW_f78uJxgz17riM-226" value="" style="triangle;whiteSpace=wrap;html=1;rotation=90;" vertex="1" parent="1">
          <mxGeometry x="390" y="10" width="20" height="30" as="geometry" />
        </mxCell>
        <mxCell id="RvB_AW_f78uJxgz17riM-227" value="" style="triangle;whiteSpace=wrap;html=1;rotation=90;" vertex="1" parent="1">
          <mxGeometry x="330" y="10" width="20" height="30" as="geometry" />
        </mxCell>
        <mxCell id="RvB_AW_f78uJxgz17riM-465" style="edgeStyle=orthogonalEdgeStyle;rounded=0;orthogonalLoop=1;jettySize=auto;html=1;exitX=1;exitY=0.5;exitDx=0;exitDy=0;entryX=0;entryY=0.5;entryDx=0;entryDy=0;" edge="1" parent="1" source="RvB_AW_f78uJxgz17riM-228" target="RvB_AW_f78uJxgz17riM-202">
          <mxGeometry relative="1" as="geometry" />
        </mxCell>
        <mxCell id="RvB_AW_f78uJxgz17riM-228" value="" style="triangle;whiteSpace=wrap;html=1;rotation=90;" vertex="1" parent="1">
          <mxGeometry x="270" y="10" width="20" height="30" as="geometry" />
        </mxCell>
        <mxCell id="RvB_AW_f78uJxgz17riM-482" style="edgeStyle=orthogonalEdgeStyle;rounded=0;orthogonalLoop=1;jettySize=auto;html=1;exitX=1;exitY=0.5;exitDx=0;exitDy=0;entryX=0;entryY=0.5;entryDx=0;entryDy=0;" edge="1" parent="1" source="RvB_AW_f78uJxgz17riM-229" target="RvB_AW_f78uJxgz17riM-186">
          <mxGeometry relative="1" as="geometry" />
        </mxCell>
        <mxCell id="RvB_AW_f78uJxgz17riM-229" value="" style="triangle;whiteSpace=wrap;html=1;rotation=90;" vertex="1" parent="1">
          <mxGeometry x="150" y="10" width="20" height="30" as="geometry" />
        </mxCell>
        <mxCell id="RvB_AW_f78uJxgz17riM-486" style="edgeStyle=orthogonalEdgeStyle;rounded=0;orthogonalLoop=1;jettySize=auto;html=1;exitX=1;exitY=0.5;exitDx=0;exitDy=0;entryX=0;entryY=0.5;entryDx=0;entryDy=0;" edge="1" parent="1" source="RvB_AW_f78uJxgz17riM-230" target="RvB_AW_f78uJxgz17riM-184">
          <mxGeometry relative="1" as="geometry" />
        </mxCell>
        <mxCell id="RvB_AW_f78uJxgz17riM-230" value="" style="triangle;whiteSpace=wrap;html=1;rotation=90;" vertex="1" parent="1">
          <mxGeometry x="90" y="10" width="20" height="30" as="geometry" />
        </mxCell>
        <mxCell id="RvB_AW_f78uJxgz17riM-452" style="edgeStyle=orthogonalEdgeStyle;rounded=0;orthogonalLoop=1;jettySize=auto;html=1;exitX=1;exitY=0.5;exitDx=0;exitDy=0;entryX=1;entryY=0.5;entryDx=0;entryDy=0;" edge="1" parent="1" source="RvB_AW_f78uJxgz17riM-231" target="RvB_AW_f78uJxgz17riM-155">
          <mxGeometry relative="1" as="geometry">
            <Array as="points">
              <mxPoint x="40" y="50" />
              <mxPoint x="60" y="50" />
              <mxPoint x="60" y="500" />
            </Array>
          </mxGeometry>
        </mxCell>
        <mxCell id="RvB_AW_f78uJxgz17riM-231" value="" style="triangle;whiteSpace=wrap;html=1;rotation=90;" vertex="1" parent="1">
          <mxGeometry x="30" y="10" width="20" height="30" as="geometry" />
        </mxCell>
        <mxCell id="RvB_AW_f78uJxgz17riM-443" style="edgeStyle=orthogonalEdgeStyle;rounded=0;orthogonalLoop=1;jettySize=auto;html=1;exitX=1;exitY=0.5;exitDx=0;exitDy=0;entryX=1;entryY=0.5;entryDx=0;entryDy=0;" edge="1" parent="1" source="RvB_AW_f78uJxgz17riM-232" target="RvB_AW_f78uJxgz17riM-163">
          <mxGeometry relative="1" as="geometry">
            <Array as="points">
              <mxPoint x="-20" y="50" />
              <mxPoint y="50" />
              <mxPoint y="340" />
            </Array>
          </mxGeometry>
        </mxCell>
        <mxCell id="RvB_AW_f78uJxgz17riM-232" value="" style="triangle;whiteSpace=wrap;html=1;rotation=90;" vertex="1" parent="1">
          <mxGeometry x="-30" y="10" width="20" height="30" as="geometry" />
        </mxCell>
        <mxCell id="RvB_AW_f78uJxgz17riM-431" style="edgeStyle=orthogonalEdgeStyle;rounded=0;orthogonalLoop=1;jettySize=auto;html=1;exitX=1;exitY=0.5;exitDx=0;exitDy=0;entryX=1;entryY=0.5;entryDx=0;entryDy=0;" edge="1" parent="1" source="RvB_AW_f78uJxgz17riM-233" target="RvB_AW_f78uJxgz17riM-171">
          <mxGeometry relative="1" as="geometry">
            <Array as="points">
              <mxPoint x="-80" y="50" />
              <mxPoint x="-60" y="50" />
              <mxPoint x="-60" y="180" />
            </Array>
          </mxGeometry>
        </mxCell>
        <mxCell id="RvB_AW_f78uJxgz17riM-233" value="" style="triangle;whiteSpace=wrap;html=1;rotation=90;" vertex="1" parent="1">
          <mxGeometry x="-90" y="10" width="20" height="30" as="geometry" />
        </mxCell>
        <mxCell id="RvB_AW_f78uJxgz17riM-234" value="" style="triangle;whiteSpace=wrap;html=1;rotation=90;" vertex="1" parent="1">
          <mxGeometry x="-150" y="10" width="20" height="30" as="geometry" />
        </mxCell>
        <mxCell id="RvB_AW_f78uJxgz17riM-466" style="edgeStyle=orthogonalEdgeStyle;rounded=0;orthogonalLoop=1;jettySize=auto;html=1;exitX=1;exitY=0.5;exitDx=0;exitDy=0;entryX=0;entryY=0.5;entryDx=0;entryDy=0;" edge="1" parent="1" source="RvB_AW_f78uJxgz17riM-235" target="RvB_AW_f78uJxgz17riM-201">
          <mxGeometry relative="1" as="geometry" />
        </mxCell>
        <mxCell id="RvB_AW_f78uJxgz17riM-235" value="" style="triangle;whiteSpace=wrap;html=1;rotation=90;" vertex="1" parent="1">
          <mxGeometry x="-210" y="10" width="20" height="30" as="geometry" />
        </mxCell>
        <mxCell id="RvB_AW_f78uJxgz17riM-475" style="edgeStyle=orthogonalEdgeStyle;rounded=0;orthogonalLoop=1;jettySize=auto;html=1;exitX=1;exitY=0.5;exitDx=0;exitDy=0;entryX=0;entryY=0.5;entryDx=0;entryDy=0;" edge="1" parent="1" source="RvB_AW_f78uJxgz17riM-236" target="RvB_AW_f78uJxgz17riM-193">
          <mxGeometry relative="1" as="geometry" />
        </mxCell>
        <mxCell id="RvB_AW_f78uJxgz17riM-236" value="" style="triangle;whiteSpace=wrap;html=1;rotation=90;" vertex="1" parent="1">
          <mxGeometry x="-270" y="10" width="20" height="30" as="geometry" />
        </mxCell>
        <mxCell id="RvB_AW_f78uJxgz17riM-483" style="edgeStyle=orthogonalEdgeStyle;rounded=0;orthogonalLoop=1;jettySize=auto;html=1;exitX=1;exitY=0.5;exitDx=0;exitDy=0;entryX=0;entryY=0.5;entryDx=0;entryDy=0;" edge="1" parent="1" source="RvB_AW_f78uJxgz17riM-237" target="RvB_AW_f78uJxgz17riM-185">
          <mxGeometry relative="1" as="geometry" />
        </mxCell>
        <mxCell id="RvB_AW_f78uJxgz17riM-237" value="" style="triangle;whiteSpace=wrap;html=1;rotation=90;" vertex="1" parent="1">
          <mxGeometry x="-330" y="10" width="20" height="30" as="geometry" />
        </mxCell>
        <mxCell id="RvB_AW_f78uJxgz17riM-487" style="edgeStyle=orthogonalEdgeStyle;rounded=0;orthogonalLoop=1;jettySize=auto;html=1;exitX=1;exitY=0.5;exitDx=0;exitDy=0;entryX=0;entryY=0.5;entryDx=0;entryDy=0;" edge="1" parent="1" source="RvB_AW_f78uJxgz17riM-238" target="RvB_AW_f78uJxgz17riM-182">
          <mxGeometry relative="1" as="geometry">
            <Array as="points">
              <mxPoint x="-380" y="590" />
              <mxPoint x="1350" y="590" />
              <mxPoint x="1350" y="600" />
            </Array>
          </mxGeometry>
        </mxCell>
        <mxCell id="RvB_AW_f78uJxgz17riM-238" value="" style="triangle;whiteSpace=wrap;html=1;rotation=90;" vertex="1" parent="1">
          <mxGeometry x="-390" y="10" width="20" height="30" as="geometry" />
        </mxCell>
        <mxCell id="RvB_AW_f78uJxgz17riM-453" style="edgeStyle=orthogonalEdgeStyle;rounded=0;orthogonalLoop=1;jettySize=auto;html=1;exitX=1;exitY=0.5;exitDx=0;exitDy=0;entryX=1;entryY=0.5;entryDx=0;entryDy=0;" edge="1" parent="1" source="RvB_AW_f78uJxgz17riM-239" target="RvB_AW_f78uJxgz17riM-154">
          <mxGeometry relative="1" as="geometry">
            <Array as="points">
              <mxPoint x="-440" y="50" />
              <mxPoint x="-420" y="50" />
              <mxPoint x="-420" y="520" />
            </Array>
          </mxGeometry>
        </mxCell>
        <mxCell id="RvB_AW_f78uJxgz17riM-239" value="" style="triangle;whiteSpace=wrap;html=1;rotation=90;" vertex="1" parent="1">
          <mxGeometry x="-450" y="10" width="20" height="30" as="geometry" />
        </mxCell>
        <mxCell id="RvB_AW_f78uJxgz17riM-428" style="edgeStyle=orthogonalEdgeStyle;rounded=0;orthogonalLoop=1;jettySize=auto;html=1;exitX=1;exitY=0.5;exitDx=0;exitDy=0;entryX=1;entryY=0.5;entryDx=0;entryDy=0;" edge="1" parent="1" source="RvB_AW_f78uJxgz17riM-241" target="RvB_AW_f78uJxgz17riM-173">
          <mxGeometry relative="1" as="geometry" />
        </mxCell>
        <mxCell id="RvB_AW_f78uJxgz17riM-241" value="" style="triangle;whiteSpace=wrap;html=1;rotation=-90;" vertex="1" parent="1">
          <mxGeometry x="-570" y="610" width="20" height="30" as="geometry" />
        </mxCell>
        <mxCell id="RvB_AW_f78uJxgz17riM-439" style="edgeStyle=orthogonalEdgeStyle;rounded=0;orthogonalLoop=1;jettySize=auto;html=1;exitX=1;exitY=0.5;exitDx=0;exitDy=0;entryX=1;entryY=0.5;entryDx=0;entryDy=0;" edge="1" parent="1" source="RvB_AW_f78uJxgz17riM-242" target="RvB_AW_f78uJxgz17riM-166">
          <mxGeometry relative="1" as="geometry" />
        </mxCell>
        <mxCell id="RvB_AW_f78uJxgz17riM-242" value="" style="triangle;whiteSpace=wrap;html=1;rotation=-90;" vertex="1" parent="1">
          <mxGeometry x="-510" y="610" width="20" height="30" as="geometry" />
        </mxCell>
        <mxCell id="RvB_AW_f78uJxgz17riM-477" style="edgeStyle=orthogonalEdgeStyle;rounded=0;orthogonalLoop=1;jettySize=auto;html=1;exitX=1;exitY=0.5;exitDx=0;exitDy=0;entryX=0;entryY=0.5;entryDx=0;entryDy=0;" edge="1" parent="1" source="RvB_AW_f78uJxgz17riM-243" target="RvB_AW_f78uJxgz17riM-191">
          <mxGeometry relative="1" as="geometry">
            <Array as="points">
              <mxPoint x="640" y="600" />
              <mxPoint x="660" y="600" />
              <mxPoint x="660" y="400" />
            </Array>
          </mxGeometry>
        </mxCell>
        <mxCell id="RvB_AW_f78uJxgz17riM-243" value="" style="triangle;whiteSpace=wrap;html=1;rotation=-90;" vertex="1" parent="1">
          <mxGeometry x="630" y="610" width="20" height="30" as="geometry" />
        </mxCell>
        <mxCell id="RvB_AW_f78uJxgz17riM-468" style="edgeStyle=orthogonalEdgeStyle;rounded=0;orthogonalLoop=1;jettySize=auto;html=1;exitX=1;exitY=0.5;exitDx=0;exitDy=0;entryX=0;entryY=0.5;entryDx=0;entryDy=0;" edge="1" parent="1" source="RvB_AW_f78uJxgz17riM-244" target="RvB_AW_f78uJxgz17riM-199">
          <mxGeometry relative="1" as="geometry">
            <Array as="points">
              <mxPoint x="700" y="600" />
              <mxPoint x="720" y="600" />
              <mxPoint x="720" y="240" />
            </Array>
          </mxGeometry>
        </mxCell>
        <mxCell id="RvB_AW_f78uJxgz17riM-244" value="" style="triangle;whiteSpace=wrap;html=1;rotation=-90;" vertex="1" parent="1">
          <mxGeometry x="690" y="610" width="20" height="30" as="geometry" />
        </mxCell>
        <mxCell id="RvB_AW_f78uJxgz17riM-459" style="edgeStyle=orthogonalEdgeStyle;rounded=0;orthogonalLoop=1;jettySize=auto;html=1;exitX=1;exitY=0.5;exitDx=0;exitDy=0;entryX=0;entryY=0.5;entryDx=0;entryDy=0;" edge="1" parent="1" source="RvB_AW_f78uJxgz17riM-245" target="RvB_AW_f78uJxgz17riM-207">
          <mxGeometry relative="1" as="geometry">
            <Array as="points">
              <mxPoint x="760" y="600" />
              <mxPoint x="780" y="600" />
              <mxPoint x="780" y="80" />
            </Array>
          </mxGeometry>
        </mxCell>
        <mxCell id="RvB_AW_f78uJxgz17riM-245" value="" style="triangle;whiteSpace=wrap;html=1;rotation=-90;" vertex="1" parent="1">
          <mxGeometry x="750" y="610" width="20" height="30" as="geometry" />
        </mxCell>
        <mxCell id="RvB_AW_f78uJxgz17riM-246" value="" style="triangle;whiteSpace=wrap;html=1;rotation=-90;" vertex="1" parent="1">
          <mxGeometry x="810" y="610" width="20" height="30" as="geometry" />
        </mxCell>
        <mxCell id="RvB_AW_f78uJxgz17riM-247" value="" style="triangle;whiteSpace=wrap;html=1;rotation=-90;" vertex="1" parent="1">
          <mxGeometry x="1290" y="610" width="20" height="30" as="geometry" />
        </mxCell>
        <mxCell id="RvB_AW_f78uJxgz17riM-458" style="edgeStyle=orthogonalEdgeStyle;rounded=0;orthogonalLoop=1;jettySize=auto;html=1;exitX=1;exitY=0.5;exitDx=0;exitDy=0;entryX=0;entryY=0.5;entryDx=0;entryDy=0;" edge="1" parent="1" source="RvB_AW_f78uJxgz17riM-248" target="RvB_AW_f78uJxgz17riM-180">
          <mxGeometry relative="1" as="geometry">
            <Array as="points">
              <mxPoint x="1240" y="600" />
              <mxPoint x="1260" y="600" />
              <mxPoint x="1260" y="60" />
            </Array>
          </mxGeometry>
        </mxCell>
        <mxCell id="RvB_AW_f78uJxgz17riM-248" value="" style="triangle;whiteSpace=wrap;html=1;rotation=-90;" vertex="1" parent="1">
          <mxGeometry x="1230" y="610" width="20" height="30" as="geometry" />
        </mxCell>
        <mxCell id="RvB_AW_f78uJxgz17riM-467" style="edgeStyle=orthogonalEdgeStyle;rounded=0;orthogonalLoop=1;jettySize=auto;html=1;exitX=1;exitY=0.5;exitDx=0;exitDy=0;entryX=0;entryY=0.5;entryDx=0;entryDy=0;" edge="1" parent="1" source="RvB_AW_f78uJxgz17riM-249" target="RvB_AW_f78uJxgz17riM-200">
          <mxGeometry relative="1" as="geometry" />
        </mxCell>
        <mxCell id="RvB_AW_f78uJxgz17riM-249" value="" style="triangle;whiteSpace=wrap;html=1;rotation=-90;" vertex="1" parent="1">
          <mxGeometry x="1170" y="610" width="20" height="30" as="geometry" />
        </mxCell>
        <mxCell id="RvB_AW_f78uJxgz17riM-476" style="edgeStyle=orthogonalEdgeStyle;rounded=0;orthogonalLoop=1;jettySize=auto;html=1;exitX=1;exitY=0.5;exitDx=0;exitDy=0;entryX=0;entryY=0.5;entryDx=0;entryDy=0;" edge="1" parent="1" source="RvB_AW_f78uJxgz17riM-250" target="RvB_AW_f78uJxgz17riM-192">
          <mxGeometry relative="1" as="geometry">
            <Array as="points">
              <mxPoint x="1120" y="600" />
              <mxPoint x="1140" y="600" />
              <mxPoint x="1140" y="380" />
            </Array>
          </mxGeometry>
        </mxCell>
        <mxCell id="RvB_AW_f78uJxgz17riM-250" value="" style="triangle;whiteSpace=wrap;html=1;rotation=-90;" vertex="1" parent="1">
          <mxGeometry x="1110" y="610" width="20" height="30" as="geometry" />
        </mxCell>
        <mxCell id="RvB_AW_f78uJxgz17riM-454" style="edgeStyle=orthogonalEdgeStyle;rounded=0;orthogonalLoop=1;jettySize=auto;html=1;exitX=1;exitY=0.5;exitDx=0;exitDy=0;entryX=1;entryY=0.5;entryDx=0;entryDy=0;" edge="1" parent="1" source="RvB_AW_f78uJxgz17riM-251" target="RvB_AW_f78uJxgz17riM-152">
          <mxGeometry relative="1" as="geometry">
            <Array as="points">
              <mxPoint x="1060" y="600" />
              <mxPoint x="1040" y="600" />
              <mxPoint x="1040" y="540" />
            </Array>
          </mxGeometry>
        </mxCell>
        <mxCell id="RvB_AW_f78uJxgz17riM-251" value="" style="triangle;whiteSpace=wrap;html=1;rotation=-90;" vertex="1" parent="1">
          <mxGeometry x="1050" y="610" width="20" height="30" as="geometry" />
        </mxCell>
        <mxCell id="RvB_AW_f78uJxgz17riM-446" style="edgeStyle=orthogonalEdgeStyle;rounded=0;orthogonalLoop=1;jettySize=auto;html=1;exitX=1;exitY=0.5;exitDx=0;exitDy=0;entryX=1;entryY=0.5;entryDx=0;entryDy=0;" edge="1" parent="1" source="RvB_AW_f78uJxgz17riM-252" target="RvB_AW_f78uJxgz17riM-161">
          <mxGeometry relative="1" as="geometry" />
        </mxCell>
        <mxCell id="RvB_AW_f78uJxgz17riM-252" value="" style="triangle;whiteSpace=wrap;html=1;rotation=-90;" vertex="1" parent="1">
          <mxGeometry x="990" y="610" width="20" height="30" as="geometry" />
        </mxCell>
        <mxCell id="RvB_AW_f78uJxgz17riM-433" style="edgeStyle=orthogonalEdgeStyle;rounded=0;orthogonalLoop=1;jettySize=auto;html=1;exitX=1;exitY=0.5;exitDx=0;exitDy=0;entryX=1;entryY=0.5;entryDx=0;entryDy=0;" edge="1" parent="1" source="RvB_AW_f78uJxgz17riM-253" target="RvB_AW_f78uJxgz17riM-169">
          <mxGeometry relative="1" as="geometry" />
        </mxCell>
        <mxCell id="RvB_AW_f78uJxgz17riM-253" value="" style="triangle;whiteSpace=wrap;html=1;rotation=-90;" vertex="1" parent="1">
          <mxGeometry x="930" y="610" width="20" height="30" as="geometry" />
        </mxCell>
        <mxCell id="RvB_AW_f78uJxgz17riM-425" style="edgeStyle=orthogonalEdgeStyle;rounded=0;orthogonalLoop=1;jettySize=auto;html=1;exitX=1;exitY=0.5;exitDx=0;exitDy=0;entryX=1;entryY=0.5;entryDx=0;entryDy=0;" edge="1" parent="1" source="RvB_AW_f78uJxgz17riM-254" target="RvB_AW_f78uJxgz17riM-149">
          <mxGeometry relative="1" as="geometry">
            <Array as="points">
              <mxPoint x="880" y="600" />
              <mxPoint x="900" y="600" />
              <mxPoint x="900" y="60" />
            </Array>
          </mxGeometry>
        </mxCell>
        <mxCell id="RvB_AW_f78uJxgz17riM-254" value="" style="triangle;whiteSpace=wrap;html=1;rotation=-90;" vertex="1" parent="1">
          <mxGeometry x="870" y="610" width="20" height="30" as="geometry" />
        </mxCell>
        <mxCell id="RvB_AW_f78uJxgz17riM-455" style="edgeStyle=orthogonalEdgeStyle;rounded=0;orthogonalLoop=1;jettySize=auto;html=1;exitX=1;exitY=0.5;exitDx=0;exitDy=0;entryX=1;entryY=0.5;entryDx=0;entryDy=0;" edge="1" parent="1" source="RvB_AW_f78uJxgz17riM-255" target="RvB_AW_f78uJxgz17riM-150">
          <mxGeometry relative="1" as="geometry">
            <Array as="points">
              <mxPoint x="580" y="600" />
              <mxPoint x="560" y="600" />
              <mxPoint x="560" y="560" />
            </Array>
          </mxGeometry>
        </mxCell>
        <mxCell id="RvB_AW_f78uJxgz17riM-255" value="" style="triangle;whiteSpace=wrap;html=1;rotation=-90;" vertex="1" parent="1">
          <mxGeometry x="570" y="610" width="20" height="30" as="geometry" />
        </mxCell>
        <mxCell id="RvB_AW_f78uJxgz17riM-447" style="edgeStyle=orthogonalEdgeStyle;rounded=0;orthogonalLoop=1;jettySize=auto;html=1;exitX=1;exitY=0.5;exitDx=0;exitDy=0;entryX=1;entryY=0.5;entryDx=0;entryDy=0;" edge="1" parent="1" source="RvB_AW_f78uJxgz17riM-256" target="RvB_AW_f78uJxgz17riM-160">
          <mxGeometry relative="1" as="geometry" />
        </mxCell>
        <mxCell id="RvB_AW_f78uJxgz17riM-256" value="" style="triangle;whiteSpace=wrap;html=1;rotation=-180;direction=south;" vertex="1" parent="1">
          <mxGeometry x="505" y="615" width="30" height="20" as="geometry" />
        </mxCell>
        <mxCell id="RvB_AW_f78uJxgz17riM-435" style="edgeStyle=orthogonalEdgeStyle;rounded=0;orthogonalLoop=1;jettySize=auto;html=1;exitX=1;exitY=0.5;exitDx=0;exitDy=0;entryX=1;entryY=0.5;entryDx=0;entryDy=0;" edge="1" parent="1" source="RvB_AW_f78uJxgz17riM-257" target="RvB_AW_f78uJxgz17riM-168">
          <mxGeometry relative="1" as="geometry" />
        </mxCell>
        <mxCell id="RvB_AW_f78uJxgz17riM-257" value="" style="triangle;whiteSpace=wrap;html=1;rotation=-90;" vertex="1" parent="1">
          <mxGeometry x="450" y="610" width="20" height="30" as="geometry" />
        </mxCell>
        <mxCell id="RvB_AW_f78uJxgz17riM-469" style="edgeStyle=orthogonalEdgeStyle;rounded=0;orthogonalLoop=1;jettySize=auto;html=1;exitX=1;exitY=0.5;exitDx=0;exitDy=0;entryX=0;entryY=0.5;entryDx=0;entryDy=0;" edge="1" parent="1" source="RvB_AW_f78uJxgz17riM-258" target="RvB_AW_f78uJxgz17riM-198">
          <mxGeometry relative="1" as="geometry">
            <Array as="points">
              <mxPoint x="220" y="600" />
              <mxPoint x="240" y="600" />
              <mxPoint x="240" y="260" />
            </Array>
          </mxGeometry>
        </mxCell>
        <mxCell id="RvB_AW_f78uJxgz17riM-258" value="" style="triangle;whiteSpace=wrap;html=1;rotation=-90;" vertex="1" parent="1">
          <mxGeometry x="210" y="610" width="20" height="30" as="geometry" />
        </mxCell>
        <mxCell id="RvB_AW_f78uJxgz17riM-426" style="edgeStyle=orthogonalEdgeStyle;rounded=0;orthogonalLoop=1;jettySize=auto;html=1;exitX=1;exitY=0.5;exitDx=0;exitDy=0;entryX=1;entryY=0.5;entryDx=0;entryDy=0;" edge="1" parent="1" source="RvB_AW_f78uJxgz17riM-259" target="RvB_AW_f78uJxgz17riM-176">
          <mxGeometry relative="1" as="geometry">
            <Array as="points">
              <mxPoint x="400" y="80" />
            </Array>
          </mxGeometry>
        </mxCell>
        <mxCell id="RvB_AW_f78uJxgz17riM-259" value="" style="triangle;whiteSpace=wrap;html=1;rotation=90;direction=west;" vertex="1" parent="1">
          <mxGeometry x="390" y="610" width="20" height="30" as="geometry" />
        </mxCell>
        <mxCell id="RvB_AW_f78uJxgz17riM-260" value="" style="triangle;whiteSpace=wrap;html=1;rotation=-90;" vertex="1" parent="1">
          <mxGeometry x="330" y="610" width="20" height="30" as="geometry" />
        </mxCell>
        <mxCell id="RvB_AW_f78uJxgz17riM-460" style="edgeStyle=orthogonalEdgeStyle;rounded=0;orthogonalLoop=1;jettySize=auto;html=1;exitX=1;exitY=0.5;exitDx=0;exitDy=0;entryX=0;entryY=0.5;entryDx=0;entryDy=0;" edge="1" parent="1" source="RvB_AW_f78uJxgz17riM-261" target="RvB_AW_f78uJxgz17riM-206">
          <mxGeometry relative="1" as="geometry">
            <Array as="points">
              <mxPoint x="280" y="600" />
              <mxPoint x="300" y="600" />
              <mxPoint x="300" y="100" />
            </Array>
          </mxGeometry>
        </mxCell>
        <mxCell id="RvB_AW_f78uJxgz17riM-261" value="" style="triangle;whiteSpace=wrap;html=1;rotation=-90;" vertex="1" parent="1">
          <mxGeometry x="270" y="610" width="20" height="30" as="geometry" />
        </mxCell>
        <mxCell id="RvB_AW_f78uJxgz17riM-478" style="edgeStyle=orthogonalEdgeStyle;rounded=0;orthogonalLoop=1;jettySize=auto;html=1;exitX=1;exitY=0.5;exitDx=0;exitDy=0;entryX=0;entryY=0.5;entryDx=0;entryDy=0;" edge="1" parent="1" source="RvB_AW_f78uJxgz17riM-262" target="RvB_AW_f78uJxgz17riM-190">
          <mxGeometry relative="1" as="geometry">
            <Array as="points">
              <mxPoint x="160" y="600" />
              <mxPoint x="180" y="600" />
              <mxPoint x="180" y="420" />
            </Array>
          </mxGeometry>
        </mxCell>
        <mxCell id="RvB_AW_f78uJxgz17riM-262" value="" style="triangle;whiteSpace=wrap;html=1;rotation=-90;" vertex="1" parent="1">
          <mxGeometry x="150" y="610" width="20" height="30" as="geometry" />
        </mxCell>
        <mxCell id="RvB_AW_f78uJxgz17riM-456" style="edgeStyle=orthogonalEdgeStyle;rounded=0;orthogonalLoop=1;jettySize=auto;html=1;exitX=1;exitY=0.5;exitDx=0;exitDy=0;entryX=1;entryY=0.5;entryDx=0;entryDy=0;" edge="1" parent="1" source="RvB_AW_f78uJxgz17riM-263" target="RvB_AW_f78uJxgz17riM-153">
          <mxGeometry relative="1" as="geometry">
            <Array as="points">
              <mxPoint x="100" y="600" />
              <mxPoint x="80" y="600" />
              <mxPoint x="80" y="580" />
            </Array>
          </mxGeometry>
        </mxCell>
        <mxCell id="RvB_AW_f78uJxgz17riM-263" value="" style="triangle;whiteSpace=wrap;html=1;rotation=-90;" vertex="1" parent="1">
          <mxGeometry x="90" y="610" width="20" height="30" as="geometry" />
        </mxCell>
        <mxCell id="RvB_AW_f78uJxgz17riM-448" style="edgeStyle=orthogonalEdgeStyle;rounded=0;orthogonalLoop=1;jettySize=auto;html=1;exitX=1;exitY=0.5;exitDx=0;exitDy=0;entryX=1;entryY=0.5;entryDx=0;entryDy=0;" edge="1" parent="1" source="RvB_AW_f78uJxgz17riM-264" target="RvB_AW_f78uJxgz17riM-159">
          <mxGeometry relative="1" as="geometry" />
        </mxCell>
        <mxCell id="RvB_AW_f78uJxgz17riM-264" value="" style="triangle;whiteSpace=wrap;html=1;rotation=-90;" vertex="1" parent="1">
          <mxGeometry x="30" y="610" width="20" height="30" as="geometry" />
        </mxCell>
        <mxCell id="RvB_AW_f78uJxgz17riM-438" style="edgeStyle=orthogonalEdgeStyle;rounded=0;orthogonalLoop=1;jettySize=auto;html=1;exitX=1;exitY=0.5;exitDx=0;exitDy=0;entryX=1;entryY=0.5;entryDx=0;entryDy=0;" edge="1" parent="1" source="RvB_AW_f78uJxgz17riM-265" target="RvB_AW_f78uJxgz17riM-167">
          <mxGeometry relative="1" as="geometry" />
        </mxCell>
        <mxCell id="RvB_AW_f78uJxgz17riM-265" value="" style="triangle;whiteSpace=wrap;html=1;rotation=-90;" vertex="1" parent="1">
          <mxGeometry x="-30" y="610" width="20" height="30" as="geometry" />
        </mxCell>
        <mxCell id="RvB_AW_f78uJxgz17riM-427" style="edgeStyle=orthogonalEdgeStyle;rounded=0;orthogonalLoop=1;jettySize=auto;html=1;exitX=1;exitY=0.5;exitDx=0;exitDy=0;entryX=1;entryY=0.5;entryDx=0;entryDy=0;" edge="1" parent="1" source="RvB_AW_f78uJxgz17riM-266" target="RvB_AW_f78uJxgz17riM-175">
          <mxGeometry relative="1" as="geometry" />
        </mxCell>
        <mxCell id="RvB_AW_f78uJxgz17riM-266" value="" style="triangle;whiteSpace=wrap;html=1;rotation=-90;" vertex="1" parent="1">
          <mxGeometry x="-90" y="610" width="20" height="30" as="geometry" />
        </mxCell>
        <mxCell id="RvB_AW_f78uJxgz17riM-267" value="" style="triangle;whiteSpace=wrap;html=1;rotation=-90;" vertex="1" parent="1">
          <mxGeometry x="-150" y="610" width="20" height="30" as="geometry" />
        </mxCell>
        <mxCell id="RvB_AW_f78uJxgz17riM-461" style="edgeStyle=orthogonalEdgeStyle;rounded=0;orthogonalLoop=1;jettySize=auto;html=1;exitX=1;exitY=0.5;exitDx=0;exitDy=0;entryX=0;entryY=0.5;entryDx=0;entryDy=0;" edge="1" parent="1" source="RvB_AW_f78uJxgz17riM-268" target="RvB_AW_f78uJxgz17riM-204">
          <mxGeometry relative="1" as="geometry">
            <Array as="points">
              <mxPoint x="-200" y="600" />
              <mxPoint x="-180" y="600" />
              <mxPoint x="-180" y="120" />
            </Array>
          </mxGeometry>
        </mxCell>
        <mxCell id="RvB_AW_f78uJxgz17riM-268" value="" style="triangle;whiteSpace=wrap;html=1;rotation=-90;" vertex="1" parent="1">
          <mxGeometry x="-210" y="610" width="20" height="30" as="geometry" />
        </mxCell>
        <mxCell id="RvB_AW_f78uJxgz17riM-471" style="edgeStyle=orthogonalEdgeStyle;rounded=0;orthogonalLoop=1;jettySize=auto;html=1;exitX=1;exitY=0.5;exitDx=0;exitDy=0;entryX=0;entryY=0.5;entryDx=0;entryDy=0;" edge="1" parent="1" source="RvB_AW_f78uJxgz17riM-269" target="RvB_AW_f78uJxgz17riM-197">
          <mxGeometry relative="1" as="geometry">
            <Array as="points">
              <mxPoint x="-260" y="600" />
              <mxPoint x="-240" y="600" />
              <mxPoint x="-240" y="280" />
            </Array>
          </mxGeometry>
        </mxCell>
        <mxCell id="RvB_AW_f78uJxgz17riM-269" value="" style="triangle;whiteSpace=wrap;html=1;rotation=-90;" vertex="1" parent="1">
          <mxGeometry x="-270" y="610" width="20" height="30" as="geometry" />
        </mxCell>
        <mxCell id="RvB_AW_f78uJxgz17riM-479" style="edgeStyle=orthogonalEdgeStyle;rounded=0;orthogonalLoop=1;jettySize=auto;html=1;exitX=1;exitY=0.5;exitDx=0;exitDy=0;entryX=0;entryY=0.5;entryDx=0;entryDy=0;" edge="1" parent="1" source="RvB_AW_f78uJxgz17riM-270" target="RvB_AW_f78uJxgz17riM-189">
          <mxGeometry relative="1" as="geometry">
            <Array as="points">
              <mxPoint x="-320" y="600" />
              <mxPoint x="-300" y="600" />
              <mxPoint x="-300" y="440" />
            </Array>
          </mxGeometry>
        </mxCell>
        <mxCell id="RvB_AW_f78uJxgz17riM-270" value="" style="triangle;whiteSpace=wrap;html=1;rotation=-180;direction=south;" vertex="1" parent="1">
          <mxGeometry x="-335" y="615" width="30" height="20" as="geometry" />
        </mxCell>
        <mxCell id="RvB_AW_f78uJxgz17riM-470" style="edgeStyle=orthogonalEdgeStyle;rounded=0;orthogonalLoop=1;jettySize=auto;html=1;exitX=1;exitY=0.5;exitDx=0;exitDy=0;entryX=1;entryY=0.5;entryDx=0;entryDy=0;" edge="1" parent="1" source="RvB_AW_f78uJxgz17riM-271" target="RvB_AW_f78uJxgz17riM-151">
          <mxGeometry relative="1" as="geometry">
            <Array as="points">
              <mxPoint x="-380" y="600" />
            </Array>
          </mxGeometry>
        </mxCell>
        <mxCell id="RvB_AW_f78uJxgz17riM-271" value="" style="triangle;whiteSpace=wrap;html=1;rotation=-90;" vertex="1" parent="1">
          <mxGeometry x="-390" y="610" width="20" height="30" as="geometry" />
        </mxCell>
        <mxCell id="RvB_AW_f78uJxgz17riM-449" style="edgeStyle=orthogonalEdgeStyle;rounded=0;orthogonalLoop=1;jettySize=auto;html=1;exitX=1;exitY=0.5;exitDx=0;exitDy=0;entryX=1;entryY=0.5;entryDx=0;entryDy=0;" edge="1" parent="1" source="RvB_AW_f78uJxgz17riM-272" target="RvB_AW_f78uJxgz17riM-158">
          <mxGeometry relative="1" as="geometry" />
        </mxCell>
        <mxCell id="RvB_AW_f78uJxgz17riM-272" value="" style="triangle;whiteSpace=wrap;html=1;rotation=-90;" vertex="1" parent="1">
          <mxGeometry x="-450" y="610" width="20" height="30" as="geometry" />
        </mxCell>
        <mxCell id="RvB_AW_f78uJxgz17riM-273" value="" style="endArrow=none;html=1;rounded=0;" edge="1" parent="1">
          <mxGeometry width="50" height="50" relative="1" as="geometry">
            <mxPoint x="-560" y="650" as="sourcePoint" />
            <mxPoint x="-560.45" y="635" as="targetPoint" />
          </mxGeometry>
        </mxCell>
        <mxCell id="RvB_AW_f78uJxgz17riM-274" value="" style="endArrow=none;html=1;rounded=0;" edge="1" parent="1">
          <mxGeometry width="50" height="50" relative="1" as="geometry">
            <mxPoint x="-499.77" y="650" as="sourcePoint" />
            <mxPoint x="-500.22" y="635" as="targetPoint" />
          </mxGeometry>
        </mxCell>
        <mxCell id="RvB_AW_f78uJxgz17riM-275" value="" style="endArrow=none;html=1;rounded=0;" edge="1" parent="1">
          <mxGeometry width="50" height="50" relative="1" as="geometry">
            <mxPoint x="-439.77" y="650" as="sourcePoint" />
            <mxPoint x="-440.22" y="635" as="targetPoint" />
          </mxGeometry>
        </mxCell>
        <mxCell id="RvB_AW_f78uJxgz17riM-276" value="" style="endArrow=none;html=1;rounded=0;" edge="1" parent="1">
          <mxGeometry width="50" height="50" relative="1" as="geometry">
            <mxPoint x="-379.77" y="650" as="sourcePoint" />
            <mxPoint x="-380.22" y="635" as="targetPoint" />
          </mxGeometry>
        </mxCell>
        <mxCell id="RvB_AW_f78uJxgz17riM-277" value="" style="endArrow=none;html=1;rounded=0;" edge="1" parent="1">
          <mxGeometry width="50" height="50" relative="1" as="geometry">
            <mxPoint x="-319.77" y="650" as="sourcePoint" />
            <mxPoint x="-320.22" y="635" as="targetPoint" />
          </mxGeometry>
        </mxCell>
        <mxCell id="RvB_AW_f78uJxgz17riM-278" value="" style="endArrow=none;html=1;rounded=0;" edge="1" parent="1">
          <mxGeometry width="50" height="50" relative="1" as="geometry">
            <mxPoint x="-259.77" y="650" as="sourcePoint" />
            <mxPoint x="-260.22" y="635" as="targetPoint" />
          </mxGeometry>
        </mxCell>
        <mxCell id="RvB_AW_f78uJxgz17riM-279" value="" style="endArrow=none;html=1;rounded=0;" edge="1" parent="1">
          <mxGeometry width="50" height="50" relative="1" as="geometry">
            <mxPoint x="-199.76999999999998" y="650" as="sourcePoint" />
            <mxPoint x="-200.22000000000003" y="635" as="targetPoint" />
          </mxGeometry>
        </mxCell>
        <mxCell id="RvB_AW_f78uJxgz17riM-280" value="" style="endArrow=none;html=1;rounded=0;" edge="1" parent="1">
          <mxGeometry width="50" height="50" relative="1" as="geometry">
            <mxPoint x="-139.76999999999998" y="650" as="sourcePoint" />
            <mxPoint x="-140.22000000000003" y="635" as="targetPoint" />
          </mxGeometry>
        </mxCell>
        <mxCell id="RvB_AW_f78uJxgz17riM-281" value="" style="endArrow=none;html=1;rounded=0;" edge="1" parent="1">
          <mxGeometry width="50" height="50" relative="1" as="geometry">
            <mxPoint x="-79.76999999999998" y="650" as="sourcePoint" />
            <mxPoint x="-80.22000000000003" y="635" as="targetPoint" />
          </mxGeometry>
        </mxCell>
        <mxCell id="RvB_AW_f78uJxgz17riM-282" value="" style="endArrow=none;html=1;rounded=0;" edge="1" parent="1">
          <mxGeometry width="50" height="50" relative="1" as="geometry">
            <mxPoint x="-19.909999999999982" y="650" as="sourcePoint" />
            <mxPoint x="-20.14" y="635" as="targetPoint" />
          </mxGeometry>
        </mxCell>
        <mxCell id="RvB_AW_f78uJxgz17riM-283" value="" style="endArrow=none;html=1;rounded=0;" edge="1" parent="1">
          <mxGeometry width="50" height="50" relative="1" as="geometry">
            <mxPoint x="40.09000000000002" y="650" as="sourcePoint" />
            <mxPoint x="39.86" y="635" as="targetPoint" />
          </mxGeometry>
        </mxCell>
        <mxCell id="RvB_AW_f78uJxgz17riM-284" value="" style="endArrow=none;html=1;rounded=0;" edge="1" parent="1">
          <mxGeometry width="50" height="50" relative="1" as="geometry">
            <mxPoint x="100.09000000000002" y="650" as="sourcePoint" />
            <mxPoint x="99.86" y="635" as="targetPoint" />
          </mxGeometry>
        </mxCell>
        <mxCell id="RvB_AW_f78uJxgz17riM-285" value="" style="endArrow=none;html=1;rounded=0;" edge="1" parent="1">
          <mxGeometry width="50" height="50" relative="1" as="geometry">
            <mxPoint x="160.09000000000003" y="650" as="sourcePoint" />
            <mxPoint x="159.86" y="635" as="targetPoint" />
          </mxGeometry>
        </mxCell>
        <mxCell id="RvB_AW_f78uJxgz17riM-286" value="" style="endArrow=none;html=1;rounded=0;" edge="1" parent="1">
          <mxGeometry width="50" height="50" relative="1" as="geometry">
            <mxPoint x="220.09000000000003" y="650" as="sourcePoint" />
            <mxPoint x="219.86" y="635" as="targetPoint" />
          </mxGeometry>
        </mxCell>
        <mxCell id="RvB_AW_f78uJxgz17riM-287" value="" style="endArrow=none;html=1;rounded=0;" edge="1" parent="1">
          <mxGeometry width="50" height="50" relative="1" as="geometry">
            <mxPoint x="280.09000000000003" y="650" as="sourcePoint" />
            <mxPoint x="279.86" y="635" as="targetPoint" />
          </mxGeometry>
        </mxCell>
        <mxCell id="RvB_AW_f78uJxgz17riM-288" value="" style="endArrow=none;html=1;rounded=0;" edge="1" parent="1">
          <mxGeometry width="50" height="50" relative="1" as="geometry">
            <mxPoint x="340.09000000000003" y="650" as="sourcePoint" />
            <mxPoint x="339.86" y="635" as="targetPoint" />
          </mxGeometry>
        </mxCell>
        <mxCell id="RvB_AW_f78uJxgz17riM-289" value="" style="endArrow=none;html=1;rounded=0;" edge="1" parent="1">
          <mxGeometry width="50" height="50" relative="1" as="geometry">
            <mxPoint x="400.09000000000003" y="650" as="sourcePoint" />
            <mxPoint x="399.86" y="635" as="targetPoint" />
          </mxGeometry>
        </mxCell>
        <mxCell id="RvB_AW_f78uJxgz17riM-290" value="" style="endArrow=none;html=1;rounded=0;" edge="1" parent="1">
          <mxGeometry width="50" height="50" relative="1" as="geometry">
            <mxPoint x="460.09000000000003" y="650" as="sourcePoint" />
            <mxPoint x="459.86" y="635" as="targetPoint" />
          </mxGeometry>
        </mxCell>
        <mxCell id="RvB_AW_f78uJxgz17riM-291" value="" style="endArrow=none;html=1;rounded=0;" edge="1" parent="1">
          <mxGeometry width="50" height="50" relative="1" as="geometry">
            <mxPoint x="520.09" y="650" as="sourcePoint" />
            <mxPoint x="519.86" y="635" as="targetPoint" />
          </mxGeometry>
        </mxCell>
        <mxCell id="RvB_AW_f78uJxgz17riM-292" value="" style="endArrow=none;html=1;rounded=0;" edge="1" parent="1">
          <mxGeometry width="50" height="50" relative="1" as="geometry">
            <mxPoint x="580.09" y="650" as="sourcePoint" />
            <mxPoint x="579.86" y="635" as="targetPoint" />
          </mxGeometry>
        </mxCell>
        <mxCell id="RvB_AW_f78uJxgz17riM-293" value="" style="endArrow=none;html=1;rounded=0;" edge="1" parent="1">
          <mxGeometry width="50" height="50" relative="1" as="geometry">
            <mxPoint x="640.09" y="650" as="sourcePoint" />
            <mxPoint x="639.86" y="635" as="targetPoint" />
          </mxGeometry>
        </mxCell>
        <mxCell id="RvB_AW_f78uJxgz17riM-294" value="" style="endArrow=none;html=1;rounded=0;" edge="1" parent="1">
          <mxGeometry width="50" height="50" relative="1" as="geometry">
            <mxPoint x="700.09" y="650" as="sourcePoint" />
            <mxPoint x="699.86" y="635" as="targetPoint" />
          </mxGeometry>
        </mxCell>
        <mxCell id="RvB_AW_f78uJxgz17riM-295" value="" style="endArrow=none;html=1;rounded=0;" edge="1" parent="1">
          <mxGeometry width="50" height="50" relative="1" as="geometry">
            <mxPoint x="760.09" y="650" as="sourcePoint" />
            <mxPoint x="759.86" y="635" as="targetPoint" />
          </mxGeometry>
        </mxCell>
        <mxCell id="RvB_AW_f78uJxgz17riM-296" value="" style="endArrow=none;html=1;rounded=0;" edge="1" parent="1">
          <mxGeometry width="50" height="50" relative="1" as="geometry">
            <mxPoint x="820.09" y="650" as="sourcePoint" />
            <mxPoint x="819.86" y="635" as="targetPoint" />
          </mxGeometry>
        </mxCell>
        <mxCell id="RvB_AW_f78uJxgz17riM-297" value="" style="endArrow=none;html=1;rounded=0;" edge="1" parent="1">
          <mxGeometry width="50" height="50" relative="1" as="geometry">
            <mxPoint x="880.09" y="650" as="sourcePoint" />
            <mxPoint x="879.86" y="635" as="targetPoint" />
          </mxGeometry>
        </mxCell>
        <mxCell id="RvB_AW_f78uJxgz17riM-298" value="" style="endArrow=none;html=1;rounded=0;" edge="1" parent="1">
          <mxGeometry width="50" height="50" relative="1" as="geometry">
            <mxPoint x="940.09" y="650" as="sourcePoint" />
            <mxPoint x="939.86" y="635" as="targetPoint" />
          </mxGeometry>
        </mxCell>
        <mxCell id="RvB_AW_f78uJxgz17riM-299" value="" style="endArrow=none;html=1;rounded=0;" edge="1" parent="1">
          <mxGeometry width="50" height="50" relative="1" as="geometry">
            <mxPoint x="1000.09" y="650" as="sourcePoint" />
            <mxPoint x="999.86" y="635" as="targetPoint" />
          </mxGeometry>
        </mxCell>
        <mxCell id="RvB_AW_f78uJxgz17riM-300" value="" style="endArrow=none;html=1;rounded=0;" edge="1" parent="1">
          <mxGeometry width="50" height="50" relative="1" as="geometry">
            <mxPoint x="1060.0900000000001" y="650" as="sourcePoint" />
            <mxPoint x="1059.8600000000001" y="635" as="targetPoint" />
          </mxGeometry>
        </mxCell>
        <mxCell id="RvB_AW_f78uJxgz17riM-301" value="" style="endArrow=none;html=1;rounded=0;" edge="1" parent="1">
          <mxGeometry width="50" height="50" relative="1" as="geometry">
            <mxPoint x="1120.0900000000001" y="650" as="sourcePoint" />
            <mxPoint x="1119.8600000000001" y="635" as="targetPoint" />
          </mxGeometry>
        </mxCell>
        <mxCell id="RvB_AW_f78uJxgz17riM-302" value="" style="endArrow=none;html=1;rounded=0;" edge="1" parent="1">
          <mxGeometry width="50" height="50" relative="1" as="geometry">
            <mxPoint x="1180.0900000000001" y="650" as="sourcePoint" />
            <mxPoint x="1179.8600000000001" y="635" as="targetPoint" />
          </mxGeometry>
        </mxCell>
        <mxCell id="RvB_AW_f78uJxgz17riM-303" value="" style="endArrow=none;html=1;rounded=0;" edge="1" parent="1">
          <mxGeometry width="50" height="50" relative="1" as="geometry">
            <mxPoint x="1240.0900000000001" y="650" as="sourcePoint" />
            <mxPoint x="1239.8600000000001" y="635" as="targetPoint" />
          </mxGeometry>
        </mxCell>
        <mxCell id="RvB_AW_f78uJxgz17riM-304" value="" style="endArrow=none;html=1;rounded=0;" edge="1" parent="1">
          <mxGeometry width="50" height="50" relative="1" as="geometry">
            <mxPoint x="1300.0900000000001" y="650" as="sourcePoint" />
            <mxPoint x="1299.8600000000001" y="635" as="targetPoint" />
          </mxGeometry>
        </mxCell>
        <mxCell id="RvB_AW_f78uJxgz17riM-305" value="" style="endArrow=none;html=1;rounded=0;" edge="1" parent="1">
          <mxGeometry width="50" height="50" relative="1" as="geometry">
            <mxPoint x="1300.0900000000001" y="15" as="sourcePoint" />
            <mxPoint x="1299.8600000000001" as="targetPoint" />
          </mxGeometry>
        </mxCell>
        <mxCell id="RvB_AW_f78uJxgz17riM-306" value="" style="endArrow=none;html=1;rounded=0;" edge="1" parent="1">
          <mxGeometry width="50" height="50" relative="1" as="geometry">
            <mxPoint x="1240.0900000000001" y="15" as="sourcePoint" />
            <mxPoint x="1239.8600000000001" as="targetPoint" />
          </mxGeometry>
        </mxCell>
        <mxCell id="RvB_AW_f78uJxgz17riM-307" value="" style="endArrow=none;html=1;rounded=0;" edge="1" parent="1">
          <mxGeometry width="50" height="50" relative="1" as="geometry">
            <mxPoint x="1180.0900000000001" y="15" as="sourcePoint" />
            <mxPoint x="1179.8600000000001" as="targetPoint" />
          </mxGeometry>
        </mxCell>
        <mxCell id="RvB_AW_f78uJxgz17riM-308" value="" style="endArrow=none;html=1;rounded=0;" edge="1" parent="1">
          <mxGeometry width="50" height="50" relative="1" as="geometry">
            <mxPoint x="1120.0900000000001" y="15" as="sourcePoint" />
            <mxPoint x="1119.8600000000001" as="targetPoint" />
          </mxGeometry>
        </mxCell>
        <mxCell id="RvB_AW_f78uJxgz17riM-309" value="" style="endArrow=none;html=1;rounded=0;" edge="1" parent="1">
          <mxGeometry width="50" height="50" relative="1" as="geometry">
            <mxPoint x="1060.0900000000001" y="15" as="sourcePoint" />
            <mxPoint x="1059.8600000000001" as="targetPoint" />
          </mxGeometry>
        </mxCell>
        <mxCell id="RvB_AW_f78uJxgz17riM-310" value="" style="endArrow=none;html=1;rounded=0;" edge="1" parent="1">
          <mxGeometry width="50" height="50" relative="1" as="geometry">
            <mxPoint x="1000.0900000000001" y="15" as="sourcePoint" />
            <mxPoint x="999.8600000000001" as="targetPoint" />
          </mxGeometry>
        </mxCell>
        <mxCell id="RvB_AW_f78uJxgz17riM-311" value="" style="endArrow=none;html=1;rounded=0;" edge="1" parent="1">
          <mxGeometry width="50" height="50" relative="1" as="geometry">
            <mxPoint x="940.0900000000001" y="15" as="sourcePoint" />
            <mxPoint x="939.8600000000001" as="targetPoint" />
          </mxGeometry>
        </mxCell>
        <mxCell id="RvB_AW_f78uJxgz17riM-312" value="" style="endArrow=none;html=1;rounded=0;" edge="1" parent="1">
          <mxGeometry width="50" height="50" relative="1" as="geometry">
            <mxPoint x="880.0900000000001" y="15" as="sourcePoint" />
            <mxPoint x="879.8600000000001" as="targetPoint" />
          </mxGeometry>
        </mxCell>
        <mxCell id="RvB_AW_f78uJxgz17riM-313" value="" style="endArrow=none;html=1;rounded=0;" edge="1" parent="1">
          <mxGeometry width="50" height="50" relative="1" as="geometry">
            <mxPoint x="820.0900000000001" y="15" as="sourcePoint" />
            <mxPoint x="819.8600000000001" as="targetPoint" />
          </mxGeometry>
        </mxCell>
        <mxCell id="RvB_AW_f78uJxgz17riM-314" value="" style="endArrow=none;html=1;rounded=0;" edge="1" parent="1">
          <mxGeometry width="50" height="50" relative="1" as="geometry">
            <mxPoint x="760.0900000000001" y="15" as="sourcePoint" />
            <mxPoint x="759.8600000000001" as="targetPoint" />
          </mxGeometry>
        </mxCell>
        <mxCell id="RvB_AW_f78uJxgz17riM-316" value="" style="endArrow=none;html=1;rounded=0;" edge="1" parent="1">
          <mxGeometry width="50" height="50" relative="1" as="geometry">
            <mxPoint x="700.0900000000001" y="15" as="sourcePoint" />
            <mxPoint x="699.8600000000001" as="targetPoint" />
          </mxGeometry>
        </mxCell>
        <mxCell id="RvB_AW_f78uJxgz17riM-317" value="" style="endArrow=none;html=1;rounded=0;" edge="1" parent="1">
          <mxGeometry width="50" height="50" relative="1" as="geometry">
            <mxPoint x="640.0900000000001" y="15" as="sourcePoint" />
            <mxPoint x="639.8600000000001" as="targetPoint" />
          </mxGeometry>
        </mxCell>
        <mxCell id="RvB_AW_f78uJxgz17riM-318" value="" style="endArrow=none;html=1;rounded=0;" edge="1" parent="1">
          <mxGeometry width="50" height="50" relative="1" as="geometry">
            <mxPoint x="580.0900000000001" y="15" as="sourcePoint" />
            <mxPoint x="579.8600000000001" as="targetPoint" />
          </mxGeometry>
        </mxCell>
        <mxCell id="RvB_AW_f78uJxgz17riM-319" value="" style="endArrow=none;html=1;rounded=0;" edge="1" parent="1">
          <mxGeometry width="50" height="50" relative="1" as="geometry">
            <mxPoint x="520.0900000000001" y="15" as="sourcePoint" />
            <mxPoint x="519.8600000000001" as="targetPoint" />
          </mxGeometry>
        </mxCell>
        <mxCell id="RvB_AW_f78uJxgz17riM-320" value="" style="endArrow=none;html=1;rounded=0;" edge="1" parent="1">
          <mxGeometry width="50" height="50" relative="1" as="geometry">
            <mxPoint x="460.09000000000015" y="15" as="sourcePoint" />
            <mxPoint x="459.8600000000001" as="targetPoint" />
          </mxGeometry>
        </mxCell>
        <mxCell id="RvB_AW_f78uJxgz17riM-321" value="" style="endArrow=none;html=1;rounded=0;" edge="1" parent="1">
          <mxGeometry width="50" height="50" relative="1" as="geometry">
            <mxPoint x="400.09000000000015" y="15" as="sourcePoint" />
            <mxPoint x="399.8600000000001" as="targetPoint" />
          </mxGeometry>
        </mxCell>
        <mxCell id="RvB_AW_f78uJxgz17riM-322" value="" style="endArrow=none;html=1;rounded=0;" edge="1" parent="1">
          <mxGeometry width="50" height="50" relative="1" as="geometry">
            <mxPoint x="340.09000000000015" y="15" as="sourcePoint" />
            <mxPoint x="339.8600000000001" as="targetPoint" />
          </mxGeometry>
        </mxCell>
        <mxCell id="RvB_AW_f78uJxgz17riM-323" value="" style="endArrow=none;html=1;rounded=0;" edge="1" parent="1">
          <mxGeometry width="50" height="50" relative="1" as="geometry">
            <mxPoint x="280.09000000000015" y="15" as="sourcePoint" />
            <mxPoint x="279.8600000000001" as="targetPoint" />
          </mxGeometry>
        </mxCell>
        <mxCell id="RvB_AW_f78uJxgz17riM-324" value="" style="endArrow=none;html=1;rounded=0;" edge="1" parent="1">
          <mxGeometry width="50" height="50" relative="1" as="geometry">
            <mxPoint x="220.09000000000015" y="15" as="sourcePoint" />
            <mxPoint x="219.86000000000013" as="targetPoint" />
          </mxGeometry>
        </mxCell>
        <mxCell id="RvB_AW_f78uJxgz17riM-325" value="" style="endArrow=none;html=1;rounded=0;" edge="1" parent="1">
          <mxGeometry width="50" height="50" relative="1" as="geometry">
            <mxPoint x="160.09000000000015" y="15" as="sourcePoint" />
            <mxPoint x="159.86000000000013" as="targetPoint" />
          </mxGeometry>
        </mxCell>
        <mxCell id="RvB_AW_f78uJxgz17riM-327" value="" style="endArrow=none;html=1;rounded=0;" edge="1" parent="1">
          <mxGeometry width="50" height="50" relative="1" as="geometry">
            <mxPoint x="100.09000000000015" y="15" as="sourcePoint" />
            <mxPoint x="99.86000000000013" as="targetPoint" />
          </mxGeometry>
        </mxCell>
        <mxCell id="RvB_AW_f78uJxgz17riM-328" value="" style="endArrow=none;html=1;rounded=0;" edge="1" parent="1">
          <mxGeometry width="50" height="50" relative="1" as="geometry">
            <mxPoint x="40.090000000000146" y="15" as="sourcePoint" />
            <mxPoint x="39.86000000000013" as="targetPoint" />
          </mxGeometry>
        </mxCell>
        <mxCell id="RvB_AW_f78uJxgz17riM-329" value="" style="endArrow=none;html=1;rounded=0;" edge="1" parent="1">
          <mxGeometry width="50" height="50" relative="1" as="geometry">
            <mxPoint x="-19.909999999999854" y="15" as="sourcePoint" />
            <mxPoint x="-20.139999999999873" as="targetPoint" />
          </mxGeometry>
        </mxCell>
        <mxCell id="RvB_AW_f78uJxgz17riM-330" value="" style="endArrow=none;html=1;rounded=0;" edge="1" parent="1">
          <mxGeometry width="50" height="50" relative="1" as="geometry">
            <mxPoint x="-79.90999999999985" y="15" as="sourcePoint" />
            <mxPoint x="-80.13999999999987" as="targetPoint" />
          </mxGeometry>
        </mxCell>
        <mxCell id="RvB_AW_f78uJxgz17riM-331" value="" style="endArrow=none;html=1;rounded=0;" edge="1" parent="1">
          <mxGeometry width="50" height="50" relative="1" as="geometry">
            <mxPoint x="-139.90999999999985" y="15" as="sourcePoint" />
            <mxPoint x="-140.13999999999987" as="targetPoint" />
          </mxGeometry>
        </mxCell>
        <mxCell id="RvB_AW_f78uJxgz17riM-332" value="" style="endArrow=none;html=1;rounded=0;" edge="1" parent="1">
          <mxGeometry width="50" height="50" relative="1" as="geometry">
            <mxPoint x="-199.90999999999985" y="15" as="sourcePoint" />
            <mxPoint x="-200.13999999999987" as="targetPoint" />
          </mxGeometry>
        </mxCell>
        <mxCell id="RvB_AW_f78uJxgz17riM-333" value="" style="endArrow=none;html=1;rounded=0;" edge="1" parent="1">
          <mxGeometry width="50" height="50" relative="1" as="geometry">
            <mxPoint x="-259.90999999999985" y="15" as="sourcePoint" />
            <mxPoint x="-260.1399999999999" as="targetPoint" />
          </mxGeometry>
        </mxCell>
        <mxCell id="RvB_AW_f78uJxgz17riM-334" value="" style="endArrow=none;html=1;rounded=0;" edge="1" parent="1">
          <mxGeometry width="50" height="50" relative="1" as="geometry">
            <mxPoint x="-319.90999999999985" y="15" as="sourcePoint" />
            <mxPoint x="-320.1399999999999" as="targetPoint" />
          </mxGeometry>
        </mxCell>
        <mxCell id="RvB_AW_f78uJxgz17riM-335" value="" style="endArrow=none;html=1;rounded=0;" edge="1" parent="1">
          <mxGeometry width="50" height="50" relative="1" as="geometry">
            <mxPoint x="-379.90999999999985" y="15" as="sourcePoint" />
            <mxPoint x="-380.1399999999999" as="targetPoint" />
          </mxGeometry>
        </mxCell>
        <mxCell id="RvB_AW_f78uJxgz17riM-336" value="" style="endArrow=none;html=1;rounded=0;" edge="1" parent="1">
          <mxGeometry width="50" height="50" relative="1" as="geometry">
            <mxPoint x="-439.90999999999985" y="15" as="sourcePoint" />
            <mxPoint x="-440.1399999999999" as="targetPoint" />
          </mxGeometry>
        </mxCell>
        <mxCell id="RvB_AW_f78uJxgz17riM-337" value="" style="endArrow=none;html=1;rounded=0;" edge="1" parent="1">
          <mxGeometry width="50" height="50" relative="1" as="geometry">
            <mxPoint x="-499.90999999999985" y="15" as="sourcePoint" />
            <mxPoint x="-500.1399999999999" as="targetPoint" />
          </mxGeometry>
        </mxCell>
        <mxCell id="RvB_AW_f78uJxgz17riM-338" value="" style="endArrow=none;html=1;rounded=0;" edge="1" parent="1">
          <mxGeometry width="50" height="50" relative="1" as="geometry">
            <mxPoint x="-559.9099999999999" y="15" as="sourcePoint" />
            <mxPoint x="-560.1399999999999" as="targetPoint" />
          </mxGeometry>
        </mxCell>
      </root>
    </mxGraphModel>
  </diagram>
</mxfile>
